<?xml version="1.0" encoding="UTF-8" standalone="no"?><svg xmlns="http://www.w3.org/2000/svg" xmlns:xlink="http://www.w3.org/1999/xlink" clip-rule="evenodd" stroke-miterlimit="4.00" viewBox="0 0 1920 1080"><desc>SVG generated by Keynote</desc><defs></defs><g transform="matrix(1.00, 0.00, -0.00, -1.00, 0.0, 1080.0)"><path d="M 0.0 1080.0 L 1920.0 1080.0 L 1920.0 0.0 L 0.0 0.0 Z M 0.0 1080.0 " fill="#FFFFFF"></path><image xlink:href="854F79BBE120D4F349BFAE7A26EC0A09.png" width="960.00" height="540.00" transform="matrix(2.00, 0.00, -0.00, -2.00, -0.0, 1080.0)"></image><g><clipPath id="clip-1300"><path d="M 9.6 591.9 L 9.6 591.9 L 9.6 1080.0 L 9.6 1080.0 Z M 9.6 591.9 "></path></clipPath><g clip-path="url(#clip-1300)"><text xml:space="preserve" font-family="FCBARCELONA-Regular" font-size="48.0" fill="#000000" transform="matrix(1.00, 0.00, -0.00, -1.00, 10.0, 1025.0)">1</text></g></g><g><clipPath id="clip-1301"><path d="M 9.6 591.9 L 9.6 591.9 L 9.6 1080.0 L 9.6 1080.0 Z M 9.6 591.9 "></path></clipPath><g clip-path="url(#clip-1301)"><text xml:space="preserve" font-family="FCBARCELONA-Regular" font-size="48.0" fill="#000000" transform="matrix(1.00, 0.00, -0.00, -1.00, 10.0, 967.0)">0</text></g></g><g><clipPath id="clip-1302"><path d="M 9.6 591.9 L 9.6 591.9 L 9.6 1080.0 L 9.6 1080.0 Z M 9.6 591.9 "></path></clipPath><g clip-path="url(#clip-1302)"><text xml:space="preserve" font-family="FCBARCELONA-Regular" font-size="48.0" fill="#000000" transform="matrix(1.00, 0.00, -0.00, -1.00, 10.0, 909.0)">/</text></g></g><g><clipPath id="clip-1303"><path d="M 9.6 591.9 L 9.6 591.9 L 9.6 1080.0 L 9.6 1080.0 Z M 9.6 591.9 "></path></clipPath><g clip-path="url(#clip-1303)"><text xml:space="preserve" font-family="FCBARCELONA-Regular" font-size="48.0" fill="#000000" transform="matrix(1.00, 0.00, -0.00, -1.00, 10.0, 851.0)">1</text></g></g><g><clipPath id="clip-1304"><path d="M 9.6 591.9 L 9.6 591.9 L 9.6 1080.0 L 9.6 1080.0 Z M 9.6 591.9 "></path></clipPath><g clip-path="url(#clip-1304)"><text xml:space="preserve" font-family="FCBARCELONA-Regular" font-size="48.0" fill="#000000" transform="matrix(1.00, 0.00, -0.00, -1.00, 10.0, 793.0)">2</text></g></g><g><clipPath id="clip-1305"><path d="M 9.6 591.9 L 9.6 591.9 L 9.6 1080.0 L 9.6 1080.0 Z M 9.6 591.9 "></path></clipPath><g clip-path="url(#clip-1305)"><text xml:space="preserve" font-family="FCBARCELONA-Regular" font-size="48.0" fill="#000000" transform="matrix(1.00, 0.00, -0.00, -1.00, 10.0, 735.0)">/</text></g></g><g><clipPath id="clip-1306"><path d="M 9.6 591.9 L 9.6 591.9 L 9.6 1080.0 L 9.6 1080.0 Z M 9.6 591.9 "></path></clipPath><g clip-path="url(#clip-1306)"><text xml:space="preserve" font-family="FCBARCELONA-Regular" font-size="48.0" fill="#000000" transform="matrix(1.00, 0.00, -0.00, -1.00, 10.0, 677.0)">1</text></g></g><g><clipPath id="clip-1307"><path d="M 9.6 591.9 L 9.6 591.9 L 9.6 1080.0 L 9.6 1080.0 Z M 9.6 591.9 "></path></clipPath><g clip-path="url(#clip-1307)"><text xml:space="preserve" font-family="FCBARCELONA-Regular" font-size="48.0" fill="#000000" transform="matrix(1.00, 0.00, -0.00, -1.00, 10.0, 619.0)">8</text></g></g><text xml:space="preserve" font-family="FCBARCELONA-Regular" font-size="48.0" fill="#000000" transform="matrix(1.00, 0.00, -0.00, -1.00, 10.0, 1025.0)">1</text><text xml:space="preserve" font-family="FCBARCELONA-Regular" font-size="48.0" fill="#000000" transform="matrix(1.00, 0.00, -0.00, -1.00, 28.5, 1025.0)">5</text><g><clipPath id="clip-1308"><path d="M -0.0 1080.0 L 1920.0 1080.0 L 1920.0 -0.0 L -0.0 -0.0 Z M -0.0 1080.0 "></path></clipPath><g clip-path="url(#clip-1308)"><image xlink:href="839396832D895D747B63B77E4320D6F5.png" width="960.00" height="541.00" transform="matrix(2.00, 0.00, -0.00, 2.00, -0.0, -1.0)"></image></g></g></g></svg>