<?xml version="1.0" encoding="UTF-8" standalone="no"?><svg xmlns="http://www.w3.org/2000/svg" xmlns:xlink="http://www.w3.org/1999/xlink" clip-rule="evenodd" stroke-miterlimit="4.00" viewBox="0 0 574 40"><desc>SVG generated by Keynote</desc><defs></defs><g transform="matrix(1.00, 0.00, -0.00, -1.00, 0.0, 40.0)"><text xml:space="preserve" font-family="FCBARCELONA-Light" font-size="50.0" fill="#FDC42B" transform="matrix(1.00, 0.00, -0.00, -1.00, -1.0, 3.0)">W</text><text xml:space="preserve" font-family="FCBARCELONA-Light" font-size="50.0" fill="#FDC42B" transform="matrix(1.00, 0.00, -0.00, -1.00, 41.3, 3.0)">E</text><text xml:space="preserve" font-family="FCBARCELONA-Light" font-size="50.0" fill="#FDC42B" transform="matrix(1.00, 0.00, -0.00, -1.00, 67.0, 3.0)"> </text><text xml:space="preserve" font-family="FCBARCELONA-Light" font-size="50.0" fill="#FDC42B" transform="matrix(1.00, 0.00, -0.00, -1.00, 77.2, 3.0)">A</text><text xml:space="preserve" font-family="FCBARCELONA-Light" font-size="50.0" fill="#FDC42B" transform="matrix(1.00, 0.00, -0.00, -1.00, 104.5, 3.0)">R</text><text xml:space="preserve" font-family="FCBARCELONA-Light" font-size="50.0" fill="#FDC42B" transform="matrix(1.00, 0.00, -0.00, -1.00, 133.3, 3.0)">E</text><text xml:space="preserve" font-family="FCBARCELONA-Light" font-size="50.0" fill="#FDC42B" transform="matrix(1.00, 0.00, -0.00, -1.00, 158.8, 3.0)"> </text><text xml:space="preserve" font-family="FCBARCELONA-Extrabold" font-weight="bold" font-size="50.0" fill="#FDC42B" transform="matrix(1.00, 0.00, -0.00, -1.00, 169.3, 3.0)">M</text><text xml:space="preserve" font-family="FCBARCELONA-Extrabold" font-weight="bold" font-size="50.0" fill="#FDC42B" transform="matrix(1.00, 0.00, -0.00, -1.00, 211.0, 3.0)">O</text><text xml:space="preserve" font-family="FCBARCELONA-Extrabold" font-weight="bold" font-size="50.0" fill="#FDC42B" transform="matrix(1.00, 0.00, -0.00, -1.00, 241.4, 3.0)">R</text><text xml:space="preserve" font-family="FCBARCELONA-Extrabold" font-weight="bold" font-size="50.0" fill="#FDC42B" transform="matrix(1.00, 0.00, -0.00, -1.00, 270.3, 3.0)">E</text><text xml:space="preserve" font-family="FCBARCELONA-Extrabold" font-weight="bold" font-size="50.0" fill="#FDC42B" transform="matrix(1.00, 0.00, -0.00, -1.00, 296.4, 3.0)"> </text><text xml:space="preserve" font-family="FCBARCELONA-Extrabold" font-weight="bold" font-size="50.0" fill="#FDC42B" transform="matrix(1.00, 0.00, -0.00, -1.00, 304.3, 3.0)">T</text><text xml:space="preserve" font-family="FCBARCELONA-Extrabold" font-weight="bold" font-size="50.0" fill="#FDC42B" transform="matrix(1.00, 0.00, -0.00, -1.00, 329.2, 3.0)">H</text><text xml:space="preserve" font-family="FCBARCELONA-Extrabold" font-weight="bold" font-size="50.0" fill="#FDC42B" transform="matrix(1.00, 0.00, -0.00, -1.00, 360.8, 3.0)">A</text><text xml:space="preserve" font-family="FCBARCELONA-Extrabold" font-weight="bold" font-size="50.0" fill="#FDC42B" transform="matrix(1.00, 0.00, -0.00, -1.00, 390.9, 3.0)">N</text><text xml:space="preserve" font-family="FCBARCELONA-Extrabold" font-weight="bold" font-size="50.0" fill="#FDC42B" transform="matrix(1.00, 0.00, -0.00, -1.00, 422.4, 3.0)"> </text><text xml:space="preserve" font-family="FCBARCELONA-Extrabold" font-weight="bold" font-size="50.0" fill="#FDC42B" transform="matrix(1.00, 0.00, -0.00, -1.00, 430.9, 3.0)">A</text><text xml:space="preserve" font-family="FCBARCELONA-Extrabold" font-weight="bold" font-size="50.0" fill="#FDC42B" transform="matrix(1.00, 0.00, -0.00, -1.00, 461.5, 3.0)"> </text><text xml:space="preserve" font-family="FCBARCELONA-Extrabold" font-weight="bold" font-size="50.0" fill="#FDC42B" transform="matrix(1.00, 0.00, -0.00, -1.00, 464.1, 3.0)">C</text><text xml:space="preserve" font-family="FCBARCELONA-Extrabold" font-weight="bold" font-size="50.0" fill="#FDC42B" transform="matrix(1.00, 0.00, -0.00, -1.00, 490.6, 3.0)">L</text><text xml:space="preserve" font-family="FCBARCELONA-Extrabold" font-weight="bold" font-size="50.0" fill="#FDC42B" transform="matrix(1.00, 0.00, -0.00, -1.00, 512.9, 3.0)">U</text><text xml:space="preserve" font-family="FCBARCELONA-Extrabold" font-weight="bold" font-size="50.0" fill="#FDC42B" transform="matrix(1.00, 0.00, -0.00, -1.00, 544.4, 3.0)">B</text></g></svg>