<?xml version="1.0" encoding="UTF-8" standalone="no"?><svg xmlns="http://www.w3.org/2000/svg" xmlns:xlink="http://www.w3.org/1999/xlink" clip-rule="evenodd" stroke-miterlimit="4.00" viewBox="0 0 642 181"><desc>SVG generated by Keynote</desc><defs></defs><g transform="matrix(1.00, 0.00, -0.00, -1.00, 0.0, 181.0)"><text xml:space="preserve" font-family="FCBARCELONA-Extrabold" font-weight="bold" font-size="106.0" fill="#FDC42B" transform="matrix(1.00, 0.00, -0.00, -1.00, -3.0, 107.0)">C</text><text xml:space="preserve" font-family="FCBARCELONA-Extrabold" font-weight="bold" font-size="106.0" fill="#FDC42B" transform="matrix(1.00, 0.00, -0.00, -1.00, 55.1, 107.0)">R</text><text xml:space="preserve" font-family="FCBARCELONA-Extrabold" font-weight="bold" font-size="106.0" fill="#FDC42B" transform="matrix(1.00, 0.00, -0.00, -1.00, 118.5, 107.0)">A</text><text xml:space="preserve" font-family="FCBARCELONA-Extrabold" font-weight="bold" font-size="106.0" fill="#FDC42B" transform="matrix(1.00, 0.00, -0.00, -1.00, 184.4, 107.0)">F</text><text xml:space="preserve" font-family="FCBARCELONA-Extrabold" font-weight="bold" font-size="106.0" fill="#FDC42B" transform="matrix(1.00, 0.00, -0.00, -1.00, 238.3, 107.0)">T</text><text xml:space="preserve" font-family="FCBARCELONA-Extrabold" font-weight="bold" font-size="106.0" fill="#FDC42B" transform="matrix(1.00, 0.00, -0.00, -1.00, 291.3, 107.0)"> </text><text xml:space="preserve" font-family="FCBARCELONA-Extrabold" font-weight="bold" font-size="106.0" fill="#FDC42B" transform="matrix(1.00, 0.00, -0.00, -1.00, 310.2, 107.0)">T</text><text xml:space="preserve" font-family="FCBARCELONA-Extrabold" font-weight="bold" font-size="106.0" fill="#FDC42B" transform="matrix(1.00, 0.00, -0.00, -1.00, 364.9, 107.0)">H</text><text xml:space="preserve" font-family="FCBARCELONA-Extrabold" font-weight="bold" font-size="106.0" fill="#FDC42B" transform="matrix(1.00, 0.00, -0.00, -1.00, 433.8, 107.0)">E</text><text xml:space="preserve" font-family="FCBARCELONA-Extrabold" font-weight="bold" font-size="106.0" fill="#FDC42B" transform="matrix(1.00, 0.00, -0.00, -1.00, 491.2, 107.0)"> </text><text xml:space="preserve" font-family="FCBARCELONA-Extrabold" font-weight="bold" font-size="106.0" fill="#FDC42B" transform="matrix(1.00, 0.00, -0.00, -1.00, -3.0, 4.0)">B</text><text xml:space="preserve" font-family="FCBARCELONA-Extrabold" font-weight="bold" font-size="106.0" fill="#FDC42B" transform="matrix(1.00, 0.00, -0.00, -1.00, 59.5, 4.0)">R</text><text xml:space="preserve" font-family="FCBARCELONA-Extrabold" font-weight="bold" font-size="106.0" fill="#FDC42B" transform="matrix(1.00, 0.00, -0.00, -1.00, 122.9, 4.0)">A</text><text xml:space="preserve" font-family="FCBARCELONA-Extrabold" font-weight="bold" font-size="106.0" fill="#FDC42B" transform="matrix(1.00, 0.00, -0.00, -1.00, 188.9, 4.0)">N</text><text xml:space="preserve" font-family="FCBARCELONA-Extrabold" font-weight="bold" font-size="106.0" fill="#FDC42B" transform="matrix(1.00, 0.00, -0.00, -1.00, 257.4, 4.0)">D</text><text xml:space="preserve" font-family="FCBARCELONA-Extrabold" font-weight="bold" font-size="106.0" fill="#FDC42B" transform="matrix(1.00, 0.00, -0.00, -1.00, 322.9, 4.0)"> </text><text xml:space="preserve" font-family="FCBARCELONA-Extrabold" font-weight="bold" font-size="106.0" fill="#FDC42B" transform="matrix(1.00, 0.00, -0.00, -1.00, 343.6, 4.0)">S</text><text xml:space="preserve" font-family="FCBARCELONA-Extrabold" font-weight="bold" font-size="106.0" fill="#FDC42B" transform="matrix(1.00, 0.00, -0.00, -1.00, 399.5, 4.0)">T</text><text xml:space="preserve" font-family="FCBARCELONA-Extrabold" font-weight="bold" font-size="106.0" fill="#FDC42B" transform="matrix(1.00, 0.00, -0.00, -1.00, 451.1, 4.0)">O</text><text xml:space="preserve" font-family="FCBARCELONA-Extrabold" font-weight="bold" font-size="106.0" fill="#FDC42B" transform="matrix(1.00, 0.00, -0.00, -1.00, 517.8, 4.0)">R</text><text xml:space="preserve" font-family="FCBARCELONA-Extrabold" font-weight="bold" font-size="106.0" fill="#FDC42B" transform="matrix(1.00, 0.00, -0.00, -1.00, 581.1, 4.0)">Y</text></g></svg>