<?xml version="1.0" encoding="UTF-8" standalone="no"?><svg xmlns="http://www.w3.org/2000/svg" xmlns:xlink="http://www.w3.org/1999/xlink" clip-rule="evenodd" stroke-miterlimit="4.00" viewBox="0 0 1920 1080"><desc>SVG generated by Keynote</desc><defs></defs><g transform="matrix(1.00, 0.00, -0.00, -1.00, 0.0, 1080.0)"><g><clipPath id="clip-1204"><path d="M 0.0 1080.0 L 1920.0 1080.0 L 1920.0 0.0 L 0.0 0.0 Z M 0.0 1080.0 "></path></clipPath><g clip-path="url(#clip-1204)"><image xlink:href="../../4D84C1F2-9EDC-4F79-ADE3-DDD63EB23DFA/assets/3BFFF6580BACF9A18EF748B7E51D1B65.png" width="1365.00" height="767.00" transform="matrix(1.41, 0.00, -0.00, -1.41, 0.0, 1080.0)"></image></g></g><path d="M 0.0 0.0 L 1770.7 0.0 " fill="none" stroke="#CE122D" stroke-width="2.00" stroke-linejoin="round" transform="matrix(1.00, 0.00, 0.00, -1.00, 72.7, 63.7)"></path><image xlink:href="../../4D84C1F2-9EDC-4F79-ADE3-DDD63EB23DFA/assets/270B1762E41B9CEA0F96736F4A6C748E.png" width="38.00" height="39.00" transform="matrix(1.00, 0.00, -0.00, -0.97, 1843.0, 1053.0)"></image><image xlink:href="B52CACB07DFC6F1612FFCADF851AD5D7.jpeg" width="1366.00" height="767.00" transform="matrix(1.43, 0.00, -0.00, -1.43, -6.0, 1080.0)"></image><g><clipPath id="clip-1205"><path d="M -6.4 1080.0 L 1948.9 1080.0 L 1948.9 -15.5 L -6.4 -15.5 Z M -6.4 1080.0 "></path></clipPath><g clip-path="url(#clip-1205)"><image xlink:href="986AA545EFA43557F44BB8021D497785.png" width="961.00" height="541.00" transform="matrix(2.00, 0.00, -0.00, 2.00, -0.4, -1.0)"></image></g></g><image xlink:href="196E1A8AEEE656FEB5BC15EC06A202BF.png" width="960.00" height="540.00" transform="matrix(2.00, 0.00, -0.00, -2.00, -2128.0, 1065.0)"></image><g><clipPath id="clip-1206"><path d="M 1842.0 1057.0 L 1883.0 1057.0 L 1883.0 1014.0 L 1842.0 1014.0 Z M 1842.0 1057.0 "></path></clipPath><g clip-path="url(#clip-1206)"><image xlink:href="../../643B0E03-8946-48E8-9DCA-A684C4CECBA7/assets/88DEAF41ECFDF379BACE3F123A8CC1AD.png" width="158.00" height="112.00" transform="matrix(1.00, 0.00, -0.00, -0.99, 1784.0, 1091.0)"></image></g></g></g></svg>