<?xml version="1.0" encoding="UTF-8" standalone="no"?><svg xmlns="http://www.w3.org/2000/svg" xmlns:xlink="http://www.w3.org/1999/xlink" clip-rule="evenodd" stroke-miterlimit="4.00" viewBox="0 0 1920 1080"><desc>SVG generated by Keynote</desc><defs></defs><g transform="matrix(1.00, 0.00, -0.00, -1.00, 0.0, 1080.0)"><path d="M 0.0 1080.0 L 1920.0 1080.0 L 1920.0 0.0 L 0.0 0.0 Z M 0.0 1080.0 " fill="#FFFFFF"></path><image xlink:href="3E68C62EED0A1A07AF4DFB6C36FAC602.png" width="82.00" height="60.00" transform="matrix(0.99, 0.00, -0.00, -0.98, 1721.0, 1059.0)"></image><text xml:space="preserve" font-family="FCBARCELONA-Extrabold" font-weight="bold" font-size="18.0" fill="#FFFFFF" transform="matrix(1.00, 0.00, -0.00, -1.00, 64.0, 1022.0)">F</text><text xml:space="preserve" font-family="FCBARCELONA-Extrabold" font-weight="bold" font-size="18.0" fill="#FFFFFF" transform="matrix(1.00, 0.00, -0.00, -1.00, 72.9, 1022.0)">C</text><text xml:space="preserve" font-family="FCBARCELONA-Extrabold" font-weight="bold" font-size="18.0" fill="#FFFFFF" transform="matrix(1.00, 0.00, -0.00, -1.00, 82.8, 1022.0)"> </text><text xml:space="preserve" font-family="FCBARCELONA-Extrabold" font-weight="bold" font-size="18.0" fill="#FFFFFF" transform="matrix(1.00, 0.00, -0.00, -1.00, 86.3, 1022.0)">B</text><text xml:space="preserve" font-family="FCBARCELONA-Extrabold" font-weight="bold" font-size="18.0" fill="#FFFFFF" transform="matrix(1.00, 0.00, -0.00, -1.00, 96.9, 1022.0)">A</text><text xml:space="preserve" font-family="FCBARCELONA-Extrabold" font-weight="bold" font-size="18.0" fill="#FFFFFF" transform="matrix(1.00, 0.00, -0.00, -1.00, 108.1, 1022.0)">R</text><text xml:space="preserve" font-family="FCBARCELONA-Extrabold" font-weight="bold" font-size="18.0" fill="#FFFFFF" transform="matrix(1.00, 0.00, -0.00, -1.00, 118.9, 1022.0)">C</text><text xml:space="preserve" font-family="FCBARCELONA-Extrabold" font-weight="bold" font-size="18.0" fill="#FFFFFF" transform="matrix(1.00, 0.00, -0.00, -1.00, 128.8, 1022.0)">E</text><text xml:space="preserve" font-family="FCBARCELONA-Extrabold" font-weight="bold" font-size="18.0" fill="#FFFFFF" transform="matrix(1.00, 0.00, -0.00, -1.00, 138.5, 1022.0)">L</text><text xml:space="preserve" font-family="FCBARCELONA-Extrabold" font-weight="bold" font-size="18.0" fill="#FFFFFF" transform="matrix(1.00, 0.00, -0.00, -1.00, 146.7, 1022.0)">O</text><text xml:space="preserve" font-family="FCBARCELONA-Extrabold" font-weight="bold" font-size="18.0" fill="#FFFFFF" transform="matrix(1.00, 0.00, -0.00, -1.00, 158.0, 1022.0)">N</text><text xml:space="preserve" font-family="FCBARCELONA-Extrabold" font-weight="bold" font-size="18.0" fill="#FFFFFF" transform="matrix(1.00, 0.00, -0.00, -1.00, 169.7, 1022.0)">A</text><text xml:space="preserve" font-family="FCBARCELONA-Extrabold" font-weight="bold" font-size="18.0" fill="#FFFFFF" transform="matrix(1.00, 0.00, -0.00, -1.00, 180.7, 1022.0)"> </text><text xml:space="preserve" font-family="FCBARCELONA-Extrabold" font-weight="bold" font-size="18.0" fill="#FFFFFF" transform="matrix(1.00, 0.00, -0.00, -1.00, 184.2, 1022.0)"> </text><text xml:space="preserve" font-family="FCBARCELONA-Extrabold" font-weight="bold" font-size="18.0" fill="#FFFFFF" transform="matrix(1.00, 0.00, -0.00, -1.00, 187.7, 1022.0)">P</text><text xml:space="preserve" font-family="FCBARCELONA-Extrabold" font-weight="bold" font-size="18.0" fill="#FFFFFF" transform="matrix(1.00, 0.00, -0.00, -1.00, 197.5, 1022.0)">A</text><text xml:space="preserve" font-family="FCBARCELONA-Extrabold" font-weight="bold" font-size="18.0" fill="#FFFFFF" transform="matrix(1.00, 0.00, -0.00, -1.00, 208.7, 1022.0)">R</text><text xml:space="preserve" font-family="FCBARCELONA-Extrabold" font-weight="bold" font-size="18.0" fill="#FFFFFF" transform="matrix(1.00, 0.00, -0.00, -1.00, 219.3, 1022.0)">T</text><text xml:space="preserve" font-family="FCBARCELONA-Extrabold" font-weight="bold" font-size="18.0" fill="#FFFFFF" transform="matrix(1.00, 0.00, -0.00, -1.00, 228.6, 1022.0)">N</text><text xml:space="preserve" font-family="FCBARCELONA-Extrabold" font-weight="bold" font-size="18.0" fill="#FFFFFF" transform="matrix(1.00, 0.00, -0.00, -1.00, 240.2, 1022.0)">E</text><text xml:space="preserve" font-family="FCBARCELONA-Extrabold" font-weight="bold" font-size="18.0" fill="#FFFFFF" transform="matrix(1.00, 0.00, -0.00, -1.00, 250.0, 1022.0)">R</text><text xml:space="preserve" font-family="FCBARCELONA-Extrabold" font-weight="bold" font-size="18.0" fill="#FFFFFF" transform="matrix(1.00, 0.00, -0.00, -1.00, 260.7, 1022.0)">S</text><text xml:space="preserve" font-family="FCBARCELONA-Extrabold" font-weight="bold" font-size="18.0" fill="#FFFFFF" transform="matrix(1.00, 0.00, -0.00, -1.00, 270.4, 1022.0)">H</text><text xml:space="preserve" font-family="FCBARCELONA-Extrabold" font-weight="bold" font-size="18.0" fill="#FFFFFF" transform="matrix(1.00, 0.00, -0.00, -1.00, 282.1, 1022.0)">I</text><text xml:space="preserve" font-family="FCBARCELONA-Extrabold" font-weight="bold" font-size="18.0" fill="#FFFFFF" transform="matrix(1.00, 0.00, -0.00, -1.00, 288.6, 1022.0)">P</text><text xml:space="preserve" font-family="FCBARCELONA-Extrabold" font-weight="bold" font-size="18.0" fill="#FFFFFF" transform="matrix(1.00, 0.00, -0.00, -1.00, 299.2, 1022.0)"> </text><text xml:space="preserve" font-family="FCBARCELONA-Extrabold" font-weight="bold" font-size="18.0" fill="#FFFFFF" transform="matrix(1.00, 0.00, -0.00, -1.00, 302.7, 1022.0)">I</text><text xml:space="preserve" font-family="FCBARCELONA-Extrabold" font-weight="bold" font-size="18.0" fill="#FFFFFF" transform="matrix(1.00, 0.00, -0.00, -1.00, 309.2, 1022.0)">N</text><text xml:space="preserve" font-family="FCBARCELONA-Extrabold" font-weight="bold" font-size="18.0" fill="#FFFFFF" transform="matrix(1.00, 0.00, -0.00, -1.00, 320.8, 1022.0)">T</text><text xml:space="preserve" font-family="FCBARCELONA-Extrabold" font-weight="bold" font-size="18.0" fill="#FFFFFF" transform="matrix(1.00, 0.00, -0.00, -1.00, 330.1, 1022.0)">R</text><text xml:space="preserve" font-family="FCBARCELONA-Extrabold" font-weight="bold" font-size="18.0" fill="#FFFFFF" transform="matrix(1.00, 0.00, -0.00, -1.00, 340.9, 1022.0)">O</text><text xml:space="preserve" font-family="FCBARCELONA-Extrabold" font-weight="bold" font-size="18.0" fill="#FFFFFF" transform="matrix(1.00, 0.00, -0.00, -1.00, 352.2, 1022.0)">D</text><text xml:space="preserve" font-family="FCBARCELONA-Extrabold" font-weight="bold" font-size="18.0" fill="#FFFFFF" transform="matrix(1.00, 0.00, -0.00, -1.00, 363.3, 1022.0)">U</text><text xml:space="preserve" font-family="FCBARCELONA-Extrabold" font-weight="bold" font-size="18.0" fill="#FFFFFF" transform="matrix(1.00, 0.00, -0.00, -1.00, 375.0, 1022.0)">C</text><text xml:space="preserve" font-family="FCBARCELONA-Extrabold" font-weight="bold" font-size="18.0" fill="#FFFFFF" transform="matrix(1.00, 0.00, -0.00, -1.00, 384.8, 1022.0)">T</text><text xml:space="preserve" font-family="FCBARCELONA-Extrabold" font-weight="bold" font-size="18.0" fill="#FFFFFF" transform="matrix(1.00, 0.00, -0.00, -1.00, 394.0, 1022.0)">I</text><text xml:space="preserve" font-family="FCBARCELONA-Extrabold" font-weight="bold" font-size="18.0" fill="#FFFFFF" transform="matrix(1.00, 0.00, -0.00, -1.00, 400.4, 1022.0)">O</text><text xml:space="preserve" font-family="FCBARCELONA-Extrabold" font-weight="bold" font-size="18.0" fill="#FFFFFF" transform="matrix(1.00, 0.00, -0.00, -1.00, 411.7, 1022.0)">N</text><path d="M 0.0 0.0 L 1731.3 0.0 " fill="none" stroke="#FFFFFF" stroke-width="2.00" stroke-linejoin="round" transform="matrix(-1.00, 0.00, 0.00, 1.00, 1788.0, 79.0)"></path><path d="M 0.0 0.0 L 1731.3 0.0 " fill="none" stroke="#FFFFFF" stroke-width="2.00" stroke-linejoin="round" transform="matrix(-1.00, 0.00, 0.00, 1.00, 1788.0, 999.3)"></path><g><clipPath id="clip-723"><path d="M -3.0 1080.0 L 1921.0 1080.0 L 1921.0 0.0 L -3.0 0.0 Z M -2.8 1080.0 "></path></clipPath><g clip-path="url(#clip-723)"><image xlink:href="4ED49074452EE6B2EC3D1C60A0F59124.jpeg" width="1153.00" height="768.00" transform="matrix(1.67, 0.00, -0.00, -1.67, -3.0, 1181.0)"></image></g></g><text xml:space="preserve" font-family="Calibri" font-size="48.0" fill="#181733" transform="matrix(1.00, 0.00, -0.00, -1.00, 10.0, 1034.0)">3</text><path d="M -280.8 1039.3 L -280.8 1080.0 L -6.2 1080.0 L -6.2 1039.3 Z M -280.8 1039.3 " fill="#144184"></path><path d="M 2374.3 37.0 L 2374.3 0.0 L 1925.4 0.0 L 1925.4 37.0 Z M 2374.3 37.0 " fill="#CE122D"></path><path d="M -5.3 1080.0 L 1920.0 1080.0 L 1920.0 -0.0 L -5.3 -0.0 Z M -5.3 1080.0 " fill="#181733" fill-opacity="0.72"></path><g><clipPath id="clip-724"><path d="M 1842.0 1057.0 L 1883.0 1057.0 L 1883.0 1014.0 L 1842.0 1014.0 Z M 1842.0 1057.0 "></path></clipPath><g clip-path="url(#clip-724)"><image xlink:href="../../643B0E03-8946-48E8-9DCA-A684C4CECBA7/assets/88DEAF41ECFDF379BACE3F123A8CC1AD.png" width="158.00" height="112.00" transform="matrix(1.00, 0.00, -0.00, -0.99, 1784.0, 1091.0)"></image></g></g></g></svg>