<?xml version="1.0" encoding="UTF-8" standalone="no"?><svg xmlns="http://www.w3.org/2000/svg" xmlns:xlink="http://www.w3.org/1999/xlink" clip-rule="evenodd" stroke-miterlimit="4.00" viewBox="0 0 814 175"><desc>SVG generated by Keynote</desc><defs></defs><g transform="matrix(1.00, 0.00, -0.00, -1.00, 0.0, 175.0)"><text xml:space="preserve" font-family="FCBARCELONA-Heavy" font-weight="bold" font-size="128.0" fill="#712A58" transform="matrix(1.00, 0.00, -0.00, -1.00, 1.0, 86.0)">T</text><text xml:space="preserve" font-family="FCBARCELONA-Heavy" font-weight="bold" font-size="128.0" fill="#712A58" transform="matrix(1.00, 0.00, -0.00, -1.00, 70.1, 86.0)">H</text><text xml:space="preserve" font-family="FCBARCELONA-Heavy" font-weight="bold" font-size="128.0" fill="#712A58" transform="matrix(1.00, 0.00, -0.00, -1.00, 154.2, 86.0)">E</text><text xml:space="preserve" font-family="FCBARCELONA-Heavy" font-weight="bold" font-size="128.0" fill="#712A58" transform="matrix(1.00, 0.00, -0.00, -1.00, 223.3, 86.0)"> </text><text xml:space="preserve" font-family="FCBARCELONA-Heavy" font-weight="bold" font-size="128.0" fill="#712A58" transform="matrix(1.00, 0.00, -0.00, -1.00, 247.7, 86.0)">F</text><text xml:space="preserve" font-family="FCBARCELONA-Heavy" font-weight="bold" font-size="128.0" fill="#712A58" transform="matrix(1.00, 0.00, -0.00, -1.00, 312.8, 86.0)">U</text><text xml:space="preserve" font-family="FCBARCELONA-Heavy" font-weight="bold" font-size="128.0" fill="#712A58" transform="matrix(1.00, 0.00, -0.00, -1.00, 396.6, 86.0)">T</text><text xml:space="preserve" font-family="FCBARCELONA-Heavy" font-weight="bold" font-size="128.0" fill="#712A58" transform="matrix(1.00, 0.00, -0.00, -1.00, 465.8, 86.0)">U</text><text xml:space="preserve" font-family="FCBARCELONA-Heavy" font-weight="bold" font-size="128.0" fill="#712A58" transform="matrix(1.00, 0.00, -0.00, -1.00, 549.6, 86.0)">R</text><text xml:space="preserve" font-family="FCBARCELONA-Heavy" font-weight="bold" font-size="128.0" fill="#712A58" transform="matrix(1.00, 0.00, -0.00, -1.00, 626.8, 86.0)">E</text><text xml:space="preserve" font-family="FCBARCELONA-Heavy" font-weight="bold" font-size="128.0" fill="#712A58" transform="matrix(1.00, 0.00, -0.00, -1.00, 695.9, 86.0)"> </text><text xml:space="preserve" font-family="LucidaGrande-Bold" font-weight="bold" font-size="128.0" fill="#712A58" transform="matrix(1.00, 0.00, -0.00, -1.00, 720.2, 86.0)"> </text><text xml:space="preserve" font-family="FCBARCELONA-Light" font-size="84.0" fill="#FFFFFF" transform="matrix(1.00, 0.00, -0.00, -1.00, 1.0, 3.0)">O</text><text xml:space="preserve" font-family="FCBARCELONA-Light" font-size="84.0" fill="#FFFFFF" transform="matrix(1.00, 0.00, -0.00, -1.00, 53.6, 3.0)">P</text><text xml:space="preserve" font-family="FCBARCELONA-Light" font-size="84.0" fill="#FFFFFF" transform="matrix(1.00, 0.00, -0.00, -1.00, 100.2, 3.0)">P</text><text xml:space="preserve" font-family="FCBARCELONA-Light" font-size="84.0" fill="#FFFFFF" transform="matrix(1.00, 0.00, -0.00, -1.00, 146.8, 3.0)">O</text><text xml:space="preserve" font-family="FCBARCELONA-Light" font-size="84.0" fill="#FFFFFF" transform="matrix(1.00, 0.00, -0.00, -1.00, 199.4, 3.0)"> </text><text xml:space="preserve" font-family="FCBARCELONA-Light" font-size="84.0" fill="#FFFFFF" transform="matrix(1.00, 0.00, -0.00, -1.00, 217.7, 3.0)">X</text><text xml:space="preserve" font-family="FCBARCELONA-Light" font-size="84.0" fill="#FFFFFF" transform="matrix(1.00, 0.00, -0.00, -1.00, 263.0, 3.0)"> </text><text xml:space="preserve" font-family="FCBARCELONA-Light" font-size="84.0" fill="#FFFFFF" transform="matrix(1.00, 0.00, -0.00, -1.00, 282.1, 3.0)">F</text><text xml:space="preserve" font-family="FCBARCELONA-Light" font-size="84.0" fill="#FFFFFF" transform="matrix(1.00, 0.00, -0.00, -1.00, 321.1, 3.0)">C</text><text xml:space="preserve" font-family="FCBARCELONA-Light" font-size="84.0" fill="#FFFFFF" transform="matrix(1.00, 0.00, -0.00, -1.00, 367.6, 3.0)"> </text><text xml:space="preserve" font-family="FCBARCELONA-Light" font-size="84.0" fill="#FFFFFF" transform="matrix(1.00, 0.00, -0.00, -1.00, 386.6, 3.0)">B</text><text xml:space="preserve" font-family="FCBARCELONA-Light" font-size="84.0" fill="#FFFFFF" transform="matrix(1.00, 0.00, -0.00, -1.00, 435.8, 3.0)">A</text><text xml:space="preserve" font-family="FCBARCELONA-Light" font-size="84.0" fill="#FFFFFF" transform="matrix(1.00, 0.00, -0.00, -1.00, 483.0, 3.0)">R</text><text xml:space="preserve" font-family="FCBARCELONA-Light" font-size="84.0" fill="#FFFFFF" transform="matrix(1.00, 0.00, -0.00, -1.00, 532.9, 3.0)">C</text><text xml:space="preserve" font-family="FCBARCELONA-Light" font-size="84.0" fill="#FFFFFF" transform="matrix(1.00, 0.00, -0.00, -1.00, 579.3, 3.0)">E</text><text xml:space="preserve" font-family="FCBARCELONA-Light" font-size="84.0" fill="#FFFFFF" transform="matrix(1.00, 0.00, -0.00, -1.00, 623.6, 3.0)">L</text><text xml:space="preserve" font-family="FCBARCELONA-Light" font-size="84.0" fill="#FFFFFF" transform="matrix(1.00, 0.00, -0.00, -1.00, 660.7, 3.0)">O</text><text xml:space="preserve" font-family="FCBARCELONA-Light" font-size="84.0" fill="#FFFFFF" transform="matrix(1.00, 0.00, -0.00, -1.00, 713.2, 3.0)">N</text><text xml:space="preserve" font-family="FCBARCELONA-Light" font-size="84.0" fill="#FFFFFF" transform="matrix(1.00, 0.00, -0.00, -1.00, 768.0, 3.0)">A</text></g></svg>