<?xml version="1.0" encoding="UTF-8" standalone="no"?><svg xmlns="http://www.w3.org/2000/svg" xmlns:xlink="http://www.w3.org/1999/xlink" clip-rule="evenodd" stroke-miterlimit="4.00" viewBox="0 0 1920 1080"><desc>SVG generated by Keynote</desc><defs></defs><g transform="matrix(1.00, 0.00, -0.00, -1.00, 0.0, 1080.0)"><path d="M 0.0 1080.0 L 1920.0 1080.0 L 1920.0 0.0 L 0.0 0.0 Z M 0.0 1080.0 " fill="#FFFFFF"></path><image xlink:href="../../29A200A4-8220-4448-BA89-3C6127761654/assets/C030456BF912461D3D850E7061650E1E.png" width="1920.00" height="1080.00" transform="matrix(1.00, 0.00, -0.00, -1.00, -0.0, 1080.0)"></image><g><clipPath id="clip-1318"><path d="M 9.6 591.9 L 9.6 591.9 L 9.6 1080.0 L 9.6 1080.0 Z M 9.6 591.9 "></path></clipPath><g clip-path="url(#clip-1318)"><text xml:space="preserve" font-family="FCBARCELONA-Regular" font-size="48.0" fill="#000000" transform="matrix(1.00, 0.00, -0.00, -1.00, 10.0, 1025.0)">1</text></g></g><g><clipPath id="clip-1319"><path d="M 9.6 591.9 L 9.6 591.9 L 9.6 1080.0 L 9.6 1080.0 Z M 9.6 591.9 "></path></clipPath><g clip-path="url(#clip-1319)"><text xml:space="preserve" font-family="FCBARCELONA-Regular" font-size="48.0" fill="#000000" transform="matrix(1.00, 0.00, -0.00, -1.00, 10.0, 967.0)">0</text></g></g><g><clipPath id="clip-1320"><path d="M 9.6 591.9 L 9.6 591.9 L 9.6 1080.0 L 9.6 1080.0 Z M 9.6 591.9 "></path></clipPath><g clip-path="url(#clip-1320)"><text xml:space="preserve" font-family="FCBARCELONA-Regular" font-size="48.0" fill="#000000" transform="matrix(1.00, 0.00, -0.00, -1.00, 10.0, 909.0)">/</text></g></g><g><clipPath id="clip-1321"><path d="M 9.6 591.9 L 9.6 591.9 L 9.6 1080.0 L 9.6 1080.0 Z M 9.6 591.9 "></path></clipPath><g clip-path="url(#clip-1321)"><text xml:space="preserve" font-family="FCBARCELONA-Regular" font-size="48.0" fill="#000000" transform="matrix(1.00, 0.00, -0.00, -1.00, 10.0, 851.0)">1</text></g></g><g><clipPath id="clip-1322"><path d="M 9.6 591.9 L 9.6 591.9 L 9.6 1080.0 L 9.6 1080.0 Z M 9.6 591.9 "></path></clipPath><g clip-path="url(#clip-1322)"><text xml:space="preserve" font-family="FCBARCELONA-Regular" font-size="48.0" fill="#000000" transform="matrix(1.00, 0.00, -0.00, -1.00, 10.0, 793.0)">2</text></g></g><g><clipPath id="clip-1323"><path d="M 9.6 591.9 L 9.6 591.9 L 9.6 1080.0 L 9.6 1080.0 Z M 9.6 591.9 "></path></clipPath><g clip-path="url(#clip-1323)"><text xml:space="preserve" font-family="FCBARCELONA-Regular" font-size="48.0" fill="#000000" transform="matrix(1.00, 0.00, -0.00, -1.00, 10.0, 735.0)">/</text></g></g><g><clipPath id="clip-1324"><path d="M 9.6 591.9 L 9.6 591.9 L 9.6 1080.0 L 9.6 1080.0 Z M 9.6 591.9 "></path></clipPath><g clip-path="url(#clip-1324)"><text xml:space="preserve" font-family="FCBARCELONA-Regular" font-size="48.0" fill="#000000" transform="matrix(1.00, 0.00, -0.00, -1.00, 10.0, 677.0)">1</text></g></g><g><clipPath id="clip-1325"><path d="M 9.6 591.9 L 9.6 591.9 L 9.6 1080.0 L 9.6 1080.0 Z M 9.6 591.9 "></path></clipPath><g clip-path="url(#clip-1325)"><text xml:space="preserve" font-family="FCBARCELONA-Regular" font-size="48.0" fill="#000000" transform="matrix(1.00, 0.00, -0.00, -1.00, 10.0, 619.0)">8</text></g></g><text xml:space="preserve" font-family="FCBARCELONA-Regular" font-size="48.0" fill="#000000" transform="matrix(1.00, 0.00, -0.00, -1.00, 10.0, 1025.0)">1</text><text xml:space="preserve" font-family="FCBARCELONA-Regular" font-size="48.0" fill="#000000" transform="matrix(1.00, 0.00, -0.00, -1.00, 28.5, 1025.0)">5</text></g></svg>