<?xml version="1.0" encoding="UTF-8" standalone="no"?><svg xmlns="http://www.w3.org/2000/svg" xmlns:xlink="http://www.w3.org/1999/xlink" clip-rule="evenodd" stroke-miterlimit="4.00" viewBox="0 0 343 189"><desc>SVG generated by Keynote</desc><defs></defs><g transform="matrix(1.00, 0.00, -0.00, -1.00, 0.0, 189.0)"><g><clipPath id="clip-886"><path d="M 289.5 173.2 L 341.6 173.2 L 341.6 120.5 L 289.5 120.5 Z M 289.5 173.2 "></path></clipPath><g clip-path="url(#clip-886)"><g><clipPath id="clip-887"><path d="M 288.5 119.5 L 342.6 119.5 L 342.6 174.2 L 288.5 174.2 Z M 288.5 119.5 "></path></clipPath><g clip-path="url(#clip-887)"><image xlink:href="DD6E70A9D737CA39559E6C8E264B6CE1.png" width="41.00" height="41.00" transform="matrix(1.27, 0.00, -0.00, -1.28, 289.5, 173.2)"></image></g></g></g></g><g><clipPath id="clip-888"><path d="M 329.0 104.6 L 329.0 20.4 L 303.4 20.4 L 303.4 104.6 Z M 329.0 104.6 "></path></clipPath><g clip-path="url(#clip-888)"><g><clipPath id="clip-889"><path d="M 328.0 103.6 L 328.0 21.4 L 304.4 21.4 L 304.4 103.6 Z M 328.0 103.6 "></path></clipPath><g clip-path="url(#clip-889)"><image xlink:href="C4F3E724546F6D9DFE74E249186FD956.png" width="64.00" height="18.00" transform="matrix(0.00, -1.28, -1.31, 0.00, 328.0, 103.6)"></image></g></g></g></g><g><clipPath id="clip-890"><path d="M 62.8 182.9 L 62.8 161.6 L 44.2 161.6 L 44.2 182.9 Z M 62.8 182.9 "></path></clipPath><g clip-path="url(#clip-890)"><path d="M 45.2 181.9 L 45.2 162.6 L 61.8 162.6 L 61.8 181.9 L 45.2 181.9 Z M 45.2 181.9 " fill="#CE122B"></path></g></g><g><clipPath id="clip-891"><path d="M 55.4 143.9 L 55.4 122.4 L 42.4 122.4 L 42.4 143.9 Z M 55.4 143.9 "></path></clipPath><g clip-path="url(#clip-891)"><path d="M 0.0 0.0 L 19.5 0.0 " fill="none" stroke="#FFFFFF" stroke-width="11.00" stroke-linejoin="round" transform="matrix(0.00, -1.00, -1.00, 0.00, 48.9, 142.9)"></path></g></g><g><clipPath id="clip-892"><path d="M 54.6 104.9 L 54.6 83.4 L 42.6 83.4 L 42.6 104.9 Z M 54.6 104.9 "></path></clipPath><g clip-path="url(#clip-892)"><path d="M 0.0 0.0 L 19.5 0.0 " fill="none" stroke="#FFFFFF" stroke-width="10.00" stroke-linejoin="round" transform="matrix(0.00, -1.00, -1.00, 0.00, 48.6, 103.9)"></path></g></g><g><clipPath id="clip-893"><path d="M 53.0 66.1 L 53.0 44.6 L 43.0 44.6 L 43.0 66.1 Z M 53.0 66.1 "></path></clipPath><g clip-path="url(#clip-893)"><path d="M 0.0 0.0 L 19.5 0.0 " fill="none" stroke="#FFFFFF" stroke-width="8.00" stroke-linejoin="round" transform="matrix(0.00, -1.00, -1.00, 0.00, 48.0, 65.1)"></path></g></g><g><clipPath id="clip-894"><path d="M 50.6 27.1 L 50.6 5.6 L 43.6 5.6 L 43.6 27.1 Z M 50.6 27.1 "></path></clipPath><g clip-path="url(#clip-894)"><path d="M 0.0 0.0 L 19.5 0.0 " fill="none" stroke="#FFFFFF" stroke-width="5.00" stroke-linejoin="round" transform="matrix(0.00, -1.00, -1.00, 0.00, 47.1, 26.1)"></path></g></g><g><clipPath id="clip-895"><path d="M 128.8 184.8 L 128.8 159.3 L 70.2 159.3 L 70.2 184.8 Z M 128.8 184.8 "></path></clipPath><g clip-path="url(#clip-895)"><g><clipPath id="clip-896"><path d="M 127.8 183.8 L 127.8 160.3 L 71.2 160.3 L 71.2 183.8 Z M 127.8 183.8 "></path></clipPath><g clip-path="url(#clip-896)"><image xlink:href="896C793524E54C474DB1B93BB1CF490D.png" width="18.00" height="44.00" transform="matrix(0.00, -1.31, -1.29, 0.00, 127.8, 183.8)"></image></g></g></g></g><g><clipPath id="clip-897"><path d="M 111.1 145.9 L 111.1 120.3 L 60.7 120.3 L 60.7 145.9 Z M 111.1 145.9 "></path></clipPath><g clip-path="url(#clip-897)"><g><clipPath id="clip-898"><path d="M 110.1 144.9 L 110.1 121.3 L 61.7 121.3 L 61.7 144.9 Z M 110.1 144.9 "></path></clipPath><g clip-path="url(#clip-898)"><image xlink:href="806C24AD70376750C4A50DB2231E3B34.png" width="18.00" height="38.00" transform="matrix(0.00, -1.31, -1.27, 0.00, 110.1, 144.9)"></image></g></g></g></g><g><clipPath id="clip-899"><path d="M 112.4 107.0 L 112.4 81.4 L 60.3 81.4 L 60.3 107.0 Z M 112.4 107.0 "></path></clipPath><g clip-path="url(#clip-899)"><g><clipPath id="clip-900"><path d="M 111.4 106.0 L 111.4 82.4 L 61.3 82.4 L 61.3 106.0 Z M 111.4 106.0 "></path></clipPath><g clip-path="url(#clip-900)"><image xlink:href="0FEC2AA61A99E3AE4DD7B54515BD24A0.png" width="18.00" height="39.00" transform="matrix(0.00, -1.31, -1.29, 0.00, 111.4, 106.0)"></image></g></g></g></g><g><clipPath id="clip-901"><path d="M 108.4 68.1 L 108.4 42.5 L 59.0 42.5 L 59.0 68.1 Z M 108.4 68.1 "></path></clipPath><g clip-path="url(#clip-901)"><g><clipPath id="clip-902"><path d="M 107.4 67.1 L 107.4 43.5 L 60.0 43.5 L 60.0 67.1 Z M 107.4 67.1 "></path></clipPath><g clip-path="url(#clip-902)"><image xlink:href="991519041367372BC45F6A887622F5BD.png" width="18.00" height="37.00" transform="matrix(0.00, -1.31, -1.28, 0.00, 107.4, 67.1)"></image></g></g></g></g><g><clipPath id="clip-903"><path d="M 105.6 29.3 L 105.6 3.6 L 57.3 3.6 L 57.3 29.3 Z M 105.6 29.3 "></path></clipPath><g clip-path="url(#clip-903)"><g><clipPath id="clip-904"><path d="M 104.6 28.3 L 104.6 4.6 L 58.3 4.6 L 58.3 28.3 Z M 104.6 28.3 "></path></clipPath><g clip-path="url(#clip-904)"><image xlink:href="4C85E0F8802A47AA0AE7B45DE4F23FD6.png" width="18.00" height="36.00" transform="matrix(0.00, -1.31, -1.29, 0.00, 104.6, 28.3)"></image></g></g></g></g><g><clipPath id="clip-905"><path d="M 1.6 109.7 L 32.6 109.7 L 32.6 78.3 L 1.6 78.3 Z M 1.6 109.7 "></path></clipPath><g clip-path="url(#clip-905)"><g><clipPath id="clip-906"><path d="M 0.6 77.3 L 33.6 77.3 L 33.6 110.7 L 0.6 110.7 Z M 0.6 77.3 "></path></clipPath><g clip-path="url(#clip-906)"><image xlink:href="../../4D84C1F2-9EDC-4F79-ADE3-DDD63EB23DFA/assets/171D08C5914163E280A668C2991D80A3.png" width="24.00" height="25.00" transform="matrix(1.29, 0.00, -0.00, -1.26, 1.6, 109.7)"></image></g></g></g></g><g><clipPath id="clip-907"><path d="M 5.8 149.0 L 28.4 149.0 L 28.4 117.6 L 5.8 117.6 Z M 5.8 149.0 "></path></clipPath><g clip-path="url(#clip-907)"><g><clipPath id="clip-908"><path d="M 4.8 116.6 L 29.4 116.6 L 29.4 150.0 L 4.8 150.0 Z M 4.8 116.6 "></path></clipPath><g clip-path="url(#clip-908)"><image xlink:href="../../4D84C1F2-9EDC-4F79-ADE3-DDD63EB23DFA/assets/C447327CA9A64526589D881BA40759C3.png" width="18.00" height="25.00" transform="matrix(1.26, 0.00, -0.00, -1.26, 5.8, 149.0)"></image></g></g></g></g><g><clipPath id="clip-909"><path d="M 1.5 187.4 L 32.7 187.4 L 32.7 156.0 L 1.5 156.0 Z M 1.5 187.4 "></path></clipPath><g clip-path="url(#clip-909)"><g><clipPath id="clip-910"><path d="M 0.5 155.0 L 33.7 155.0 L 33.7 188.4 L 0.5 188.4 Z M 0.5 155.0 "></path></clipPath><g clip-path="url(#clip-910)"><image xlink:href="../../4D84C1F2-9EDC-4F79-ADE3-DDD63EB23DFA/assets/61542DA0523257B2A7EE061F2FB6CFD4.png" width="24.00" height="25.00" transform="matrix(1.30, 0.00, -0.00, -1.26, 1.5, 187.4)"></image></g></g></g></g><g><clipPath id="clip-911"><path d="M 1.3 72.8 L 32.9 72.8 L 32.9 41.4 L 1.3 41.4 Z M 1.3 72.8 "></path></clipPath><g clip-path="url(#clip-911)"><g><clipPath id="clip-912"><path d="M 0.3 40.4 L 33.9 40.4 L 33.9 73.8 L 0.3 73.8 Z M 0.3 40.4 "></path></clipPath><g clip-path="url(#clip-912)"><image xlink:href="../../4D84C1F2-9EDC-4F79-ADE3-DDD63EB23DFA/assets/9BAA46BAEDBC94D639869F9BA8D20632.png" width="25.00" height="25.00" transform="matrix(1.26, 0.00, -0.00, -1.26, 1.3, 72.8)"></image></g></g></g></g><g><clipPath id="clip-913"><path d="M 1.4 32.5 L 32.8 32.5 L 32.8 1.1 L 1.4 1.1 Z M 1.4 32.5 "></path></clipPath><g clip-path="url(#clip-913)"><g><clipPath id="clip-914"><path d="M 0.4 0.1 L 33.8 0.1 L 33.8 33.5 L 0.4 33.5 Z M 0.4 0.1 "></path></clipPath><g clip-path="url(#clip-914)"><image xlink:href="../../4D84C1F2-9EDC-4F79-ADE3-DDD63EB23DFA/assets/5E615D846C70E763A8557208B547ADAC.png" width="25.00" height="25.00" transform="matrix(1.26, 0.00, -0.00, -1.26, 1.4, 32.5)"></image></g></g></g></g></g></svg>