<?xml version="1.0" encoding="UTF-8" standalone="no"?><svg xmlns="http://www.w3.org/2000/svg" xmlns:xlink="http://www.w3.org/1999/xlink" clip-rule="evenodd" stroke-miterlimit="4.00" viewBox="0 0 346 189"><desc>SVG generated by Keynote</desc><defs></defs><g transform="matrix(1.00, 0.00, -0.00, -1.00, 0.0, 189.0)"><g><clipPath id="clip-854"><path d="M 288.3 177.4 L 342.9 179.9 L 345.3 125.3 L 290.7 122.9 Z M 288.3 177.4 "></path></clipPath><g clip-path="url(#clip-854)"><g><clipPath id="clip-855"><path d="M 289.3 176.5 L 341.9 178.9 L 344.3 126.3 L 291.7 123.9 Z M 289.3 176.5 "></path></clipPath><g clip-path="url(#clip-855)"><image xlink:href="F5F0224FBFDB8FCCFF60F92BCB8A1204.png" width="41.00" height="41.00" transform="matrix(1.28, 0.06, 0.06, -1.28, 289.3, 176.5)"></image></g></g></g></g><g><clipPath id="clip-856"><path d="M 330.0 108.8 L 330.0 16.4 L 304.3 16.4 L 304.3 108.8 Z M 330.0 108.8 "></path></clipPath><g clip-path="url(#clip-856)"><g><clipPath id="clip-857"><path d="M 329.0 107.8 L 329.0 17.4 L 305.3 17.4 L 305.3 107.8 Z M 329.0 107.8 "></path></clipPath><g clip-path="url(#clip-857)"><image xlink:href="2AF28EBF4E945C1C6A04C2147824EABD.png" width="71.00" height="18.00" transform="matrix(0.00, -1.27, -1.31, 0.00, 329.0, 107.8)"></image></g></g></g></g><g><clipPath id="clip-858"><path d="M 83.1 183.4 L 83.1 161.9 L 44.9 161.9 L 44.9 183.4 Z M 83.1 183.4 "></path></clipPath><g clip-path="url(#clip-858)"><path d="M 45.9 182.4 L 45.9 162.9 L 82.1 162.9 L 82.1 182.4 L 45.9 182.4 Z M 45.9 182.4 " fill="#CE122B"></path></g></g><g><clipPath id="clip-859"><path d="M 82.0 144.4 L 82.0 122.9 L 44.9 122.9 L 44.9 144.4 Z M 82.0 144.4 "></path></clipPath><g clip-path="url(#clip-859)"><path d="M 81.0 123.9 L 81.0 143.4 L 45.9 143.4 L 45.9 123.9 L 81.0 123.9 Z M 81.0 123.9 " fill="#FFFFFF"></path></g></g><g><clipPath id="clip-860"><path d="M 69.7 105.4 L 69.7 84.1 L 44.9 84.1 L 44.9 105.4 Z M 69.7 105.4 "></path></clipPath><g clip-path="url(#clip-860)"><path d="M 68.7 85.1 L 68.7 104.4 L 45.9 104.4 L 45.9 85.1 L 68.7 85.1 Z M 68.7 85.1 " fill="#FFFFFF"></path></g></g><g><clipPath id="clip-861"><path d="M 59.0 66.6 L 59.0 45.1 L 44.9 45.1 L 44.9 66.6 Z M 59.0 66.6 "></path></clipPath><g clip-path="url(#clip-861)"><path d="M 58.0 46.1 L 58.0 65.6 L 45.9 65.6 L 45.9 46.1 L 58.0 46.1 Z M 58.0 46.1 " fill="#FFFFFF"></path></g></g><g><clipPath id="clip-862"><path d="M 58.2 27.6 L 58.2 6.3 L 44.9 6.3 L 44.9 27.6 Z M 58.2 27.6 "></path></clipPath><g clip-path="url(#clip-862)"><path d="M 57.2 7.3 L 57.2 26.6 L 45.9 26.6 L 45.9 7.3 L 57.2 7.3 Z M 57.2 7.3 " fill="#FFFFFF"></path></g></g><g><clipPath id="clip-863"><path d="M 150.1 185.3 L 150.1 159.7 L 90.8 159.7 L 90.8 185.3 Z M 150.1 185.3 "></path></clipPath><g clip-path="url(#clip-863)"><g><clipPath id="clip-864"><path d="M 149.1 184.3 L 149.1 160.7 L 91.8 160.7 L 91.8 184.3 Z M 149.1 184.3 "></path></clipPath><g clip-path="url(#clip-864)"><image xlink:href="8805306CC7F37969ED6F461686290925.png" width="18.00" height="45.00" transform="matrix(0.00, -1.31, -1.27, 0.00, 149.1, 184.3)"></image></g></g></g></g><g><clipPath id="clip-865"><path d="M 146.0 146.4 L 146.0 120.7 L 89.4 120.7 L 89.4 146.4 Z M 146.0 146.4 "></path></clipPath><g clip-path="url(#clip-865)"><g><clipPath id="clip-866"><path d="M 145.0 145.4 L 145.0 121.7 L 90.4 121.7 L 90.4 145.4 Z M 145.0 145.4 "></path></clipPath><g clip-path="url(#clip-866)"><image xlink:href="CB4C2A416A38323CE5801209F46AB0A6.png" width="18.00" height="43.00" transform="matrix(0.00, -1.31, -1.27, 0.00, 145.0, 145.4)"></image></g></g></g></g><g><clipPath id="clip-867"><path d="M 133.1 107.5 L 133.1 81.9 L 77.3 81.9 L 77.3 107.5 Z M 133.1 107.5 "></path></clipPath><g clip-path="url(#clip-867)"><g><clipPath id="clip-868"><path d="M 132.1 106.5 L 132.1 82.9 L 78.3 82.9 L 78.3 106.5 Z M 132.1 106.5 "></path></clipPath><g clip-path="url(#clip-868)"><image xlink:href="D3663D470AE5CE3608920C19680972D0.png" width="18.00" height="42.00" transform="matrix(0.00, -1.31, -1.28, 0.00, 132.1, 106.5)"></image></g></g></g></g><g><clipPath id="clip-869"><path d="M 115.2 68.5 L 115.2 42.9 L 66.6 42.9 L 66.6 68.5 Z M 115.2 68.5 "></path></clipPath><g clip-path="url(#clip-869)"><g><clipPath id="clip-870"><path d="M 114.2 67.5 L 114.2 43.9 L 67.6 43.9 L 67.6 67.5 Z M 114.2 67.5 "></path></clipPath><g clip-path="url(#clip-870)"><image xlink:href="71A2EE979DF84203127E29E01C48038E.png" width="18.00" height="36.00" transform="matrix(0.00, -1.31, -1.29, 0.00, 114.2, 67.5)"></image></g></g></g></g><g><clipPath id="clip-871"><path d="M 116.4 29.6 L 116.4 4.0 L 65.8 4.0 L 65.8 29.6 Z M 116.4 29.6 "></path></clipPath><g clip-path="url(#clip-871)"><g><clipPath id="clip-872"><path d="M 115.4 28.6 L 115.4 5.0 L 66.8 5.0 L 66.8 28.6 Z M 115.4 28.6 "></path></clipPath><g clip-path="url(#clip-872)"><image xlink:href="70CF03F285B75E32960CEBD44D2096F2.png" width="18.00" height="38.00" transform="matrix(0.00, -1.31, -1.28, 0.00, 115.4, 28.6)"></image></g></g></g></g><g><clipPath id="clip-873"><path d="M 2.2 110.2 L 33.2 110.2 L 33.2 78.8 L 2.2 78.8 Z M 2.2 110.2 "></path></clipPath><g clip-path="url(#clip-873)"><g><clipPath id="clip-874"><path d="M 1.2 77.8 L 34.2 77.8 L 34.2 111.2 L 1.2 111.2 Z M 1.2 77.8 "></path></clipPath><g clip-path="url(#clip-874)"><image xlink:href="../../4D84C1F2-9EDC-4F79-ADE3-DDD63EB23DFA/assets/171D08C5914163E280A668C2991D80A3.png" width="24.00" height="25.00" transform="matrix(1.29, 0.00, -0.00, -1.26, 2.2, 110.2)"></image></g></g></g></g><g><clipPath id="clip-875"><path d="M 6.4 149.5 L 29.0 149.5 L 29.0 118.1 L 6.4 118.1 Z M 6.4 149.5 "></path></clipPath><g clip-path="url(#clip-875)"><g><clipPath id="clip-876"><path d="M 5.4 117.1 L 30.0 117.1 L 30.0 150.5 L 5.4 150.5 Z M 5.4 117.1 "></path></clipPath><g clip-path="url(#clip-876)"><image xlink:href="../../4D84C1F2-9EDC-4F79-ADE3-DDD63EB23DFA/assets/C447327CA9A64526589D881BA40759C3.png" width="18.00" height="25.00" transform="matrix(1.26, 0.00, -0.00, -1.26, 6.4, 149.5)"></image></g></g></g></g><g><clipPath id="clip-877"><path d="M 2.1 187.9 L 33.3 187.9 L 33.3 156.5 L 2.1 156.5 Z M 2.1 187.9 "></path></clipPath><g clip-path="url(#clip-877)"><g><clipPath id="clip-878"><path d="M 1.1 155.5 L 34.3 155.5 L 34.3 188.9 L 1.1 188.9 Z M 1.1 155.5 "></path></clipPath><g clip-path="url(#clip-878)"><image xlink:href="../../4D84C1F2-9EDC-4F79-ADE3-DDD63EB23DFA/assets/61542DA0523257B2A7EE061F2FB6CFD4.png" width="24.00" height="25.00" transform="matrix(1.30, 0.00, -0.00, -1.26, 2.1, 187.9)"></image></g></g></g></g><g><clipPath id="clip-879"><path d="M 1.9 73.3 L 33.5 73.3 L 33.5 41.9 L 1.9 41.9 Z M 1.9 73.3 "></path></clipPath><g clip-path="url(#clip-879)"><g><clipPath id="clip-880"><path d="M 0.9 40.9 L 34.5 40.9 L 34.5 74.3 L 0.9 74.3 Z M 0.9 40.9 "></path></clipPath><g clip-path="url(#clip-880)"><image xlink:href="../../4D84C1F2-9EDC-4F79-ADE3-DDD63EB23DFA/assets/9BAA46BAEDBC94D639869F9BA8D20632.png" width="25.00" height="25.00" transform="matrix(1.26, 0.00, -0.00, -1.26, 1.9, 73.3)"></image></g></g></g></g><g><clipPath id="clip-881"><path d="M 2.0 33.0 L 33.4 33.0 L 33.4 1.6 L 2.0 1.6 Z M 2.0 33.0 "></path></clipPath><g clip-path="url(#clip-881)"><g><clipPath id="clip-882"><path d="M 1.0 0.6 L 34.4 0.6 L 34.4 34.0 L 1.0 34.0 Z M 1.0 0.6 "></path></clipPath><g clip-path="url(#clip-882)"><image xlink:href="../../4D84C1F2-9EDC-4F79-ADE3-DDD63EB23DFA/assets/5E615D846C70E763A8557208B547ADAC.png" width="25.00" height="25.00" transform="matrix(1.26, 0.00, -0.00, -1.26, 2.0, 33.0)"></image></g></g></g></g></g></svg>