<?xml version="1.0" encoding="UTF-8" standalone="no"?><svg xmlns="http://www.w3.org/2000/svg" xmlns:xlink="http://www.w3.org/1999/xlink" clip-rule="evenodd" stroke-miterlimit="4.00" viewBox="0 0 251 217"><desc>SVG generated by Keynote</desc><defs></defs><g transform="matrix(1.00, 0.00, -0.00, -1.00, 0.0, 217.0)"><g><clipPath id="clip-819"><path d="M 14.9 0.7 L 231.1 0.7 L 231.1 216.9 L 14.9 216.9 Z M 14.9 0.7 "></path></clipPath><g clip-path="url(#clip-819)"><path d="M 172.6 29.6 C 212.1 69.1 212.1 133.1 172.6 172.6 C 133.1 212.1 69.1 212.1 29.6 172.6 C -9.9 133.1 -9.9 69.1 29.6 29.6 C 69.1 -9.9 133.1 -9.9 172.6 29.6 Z M 172.6 29.6 " fill="none" stroke="#FDC42B" stroke-width="12.00" stroke-linejoin="round" transform="matrix(1.00, 0.00, 0.00, -1.00, 21.9, 209.9)"></path></g></g><g><clipPath id="clip-820"><path d="M -10.9 46.5 L 261.8 46.5 L 261.8 189.5 L -10.9 189.5 Z M -10.9 46.5 "></path></clipPath><g clip-path="url(#clip-820)"><text xml:space="preserve" font-family="FCBARCELONA-Extrabold" font-weight="bold" font-size="74.0" fill="#FFFFFF" transform="matrix(1.00, 0.00, -0.00, -1.00, 54.0, 98.0)">3</text><text xml:space="preserve" font-family="FCBARCELONA-Extrabold" font-weight="bold" font-size="74.0" fill="#FFFFFF" transform="matrix(1.00, 0.00, -0.00, -1.00, 92.8, 98.0)">3</text><text xml:space="preserve" font-family="FCBARCELONA-Extrabold" font-weight="bold" font-size="74.0" fill="#FFFFFF" transform="matrix(1.00, 0.00, -0.00, -1.00, 131.6, 98.0)">3</text><text xml:space="preserve" font-family="FCBARCELONA-Extrabold" font-weight="bold" font-size="32.0" fill="#FFFFFF" transform="matrix(1.00, 0.00, -0.00, -1.00, 170.3, 98.0)">M</text><text xml:space="preserve" font-family="FCBARCELONA-Extrabold" font-weight="bold" font-size="32.0" fill="#FFFFFF" transform="matrix(1.00, 0.00, -0.00, -1.00, 197.7, 98.0)"> </text><text xml:space="preserve" font-family="FCBARCELONA-Regular" font-size="18.0" fill="#FDC42B" transform="matrix(1.00, 0.00, -0.00, -1.00, 78.0, 61.0)">P</text><text xml:space="preserve" font-family="FCBARCELONA-Regular" font-size="18.0" fill="#FDC42B" transform="matrix(1.00, 0.00, -0.00, -1.00, 87.3, 61.0)">A</text><text xml:space="preserve" font-family="FCBARCELONA-Regular" font-size="18.0" fill="#FDC42B" transform="matrix(1.00, 0.00, -0.00, -1.00, 97.4, 61.0)">G</text><text xml:space="preserve" font-family="FCBARCELONA-Regular" font-size="18.0" fill="#FDC42B" transform="matrix(1.00, 0.00, -0.00, -1.00, 108.1, 61.0)">E</text><text xml:space="preserve" font-family="FCBARCELONA-Regular" font-size="18.0" fill="#FDC42B" transform="matrix(1.00, 0.00, -0.00, -1.00, 117.6, 61.0)"> </text><text xml:space="preserve" font-family="FCBARCELONA-Regular" font-size="18.0" fill="#FDC42B" transform="matrix(1.00, 0.00, -0.00, -1.00, 121.4, 61.0)">V</text><text xml:space="preserve" font-family="FCBARCELONA-Regular" font-size="18.0" fill="#FDC42B" transform="matrix(1.00, 0.00, -0.00, -1.00, 131.7, 61.0)">I</text><text xml:space="preserve" font-family="FCBARCELONA-Regular" font-size="18.0" fill="#FDC42B" transform="matrix(1.00, 0.00, -0.00, -1.00, 137.5, 61.0)">E</text><text xml:space="preserve" font-family="FCBARCELONA-Regular" font-size="18.0" fill="#FDC42B" transform="matrix(1.00, 0.00, -0.00, -1.00, 146.9, 61.0)">W</text><text xml:space="preserve" font-family="FCBARCELONA-Regular" font-size="18.0" fill="#FDC42B" transform="matrix(1.00, 0.00, -0.00, -1.00, 162.7, 61.0)">S</text></g></g></g></svg>