<?xml version="1.0" encoding="UTF-8" standalone="no"?><svg xmlns="http://www.w3.org/2000/svg" xmlns:xlink="http://www.w3.org/1999/xlink" clip-rule="evenodd" stroke-miterlimit="4.00" viewBox="0 0 436 295"><desc>SVG generated by Keynote</desc><defs></defs><g transform="matrix(1.00, 0.00, -0.00, -1.00, 0.0, 295.0)"><g><clipPath id="clip-951"><path d="M 0.0 0.0 L 436.0 0.0 L 436.0 241.7 L 0.0 241.7 Z M 0.0 0.0 "></path></clipPath><g clip-path="url(#clip-951)"><text xml:space="preserve" font-family="FCBARCELONA-Extrabold" font-weight="bold" font-size="176.0" fill="#FDC42B" transform="matrix(1.00, 0.00, -0.00, -1.00, -4.0, 173.0)">5</text><text xml:space="preserve" font-family="FCBARCELONA-Extrabold" font-weight="bold" font-size="176.0" fill="#FDC42B" transform="matrix(1.00, 0.00, -0.00, -1.00, 90.5, 173.0)">6</text><text xml:space="preserve" font-family="FCBARCELONA-Extrabold" font-weight="bold" font-size="176.0" fill="#FDC42B" transform="matrix(1.00, 0.00, -0.00, -1.00, 186.4, 173.0)">4</text><text xml:space="preserve" font-family="FCBARCELONA-Extrabold" font-weight="bold" font-size="176.0" fill="#FDC42B" transform="matrix(1.00, 0.00, -0.00, -1.00, 285.3, 173.0)">M</text><text xml:space="preserve" font-family="FCBARCELONA-Extrabold" font-weight="bold" font-size="106.0" fill="#FFFFFF" transform="matrix(1.00, 0.00, -0.00, -1.00, 435.6, 173.0)"> </text></g></g><text xml:space="preserve" font-family="FCBARCELONA-Extrabold" font-weight="bold" font-size="74.0" fill="#FFFFFF" transform="matrix(1.00, 0.00, -0.00, -1.00, 1.0, 88.0)">T</text><text xml:space="preserve" font-family="FCBARCELONA-Extrabold" font-weight="bold" font-size="74.0" fill="#FFFFFF" transform="matrix(1.00, 0.00, -0.00, -1.00, 39.2, 88.0)">V</text><text xml:space="preserve" font-family="FCBARCELONA-Extrabold" font-weight="bold" font-size="74.0" fill="#FFFFFF" transform="matrix(1.00, 0.00, -0.00, -1.00, 83.4, 88.0)"> </text><text xml:space="preserve" font-family="FCBARCELONA-Extrabold" font-weight="bold" font-size="74.0" fill="#FFFFFF" transform="matrix(1.00, 0.00, -0.00, -1.00, 97.4, 88.0)">A</text><text xml:space="preserve" font-family="FCBARCELONA-Extrabold" font-weight="bold" font-size="74.0" fill="#FFFFFF" transform="matrix(1.00, 0.00, -0.00, -1.00, 142.6, 88.0)">U</text><text xml:space="preserve" font-family="FCBARCELONA-Extrabold" font-weight="bold" font-size="74.0" fill="#FFFFFF" transform="matrix(1.00, 0.00, -0.00, -1.00, 190.7, 88.0)">D</text><text xml:space="preserve" font-family="FCBARCELONA-Extrabold" font-weight="bold" font-size="74.0" fill="#FFFFFF" transform="matrix(1.00, 0.00, -0.00, -1.00, 235.7, 88.0)">I</text><text xml:space="preserve" font-family="FCBARCELONA-Extrabold" font-weight="bold" font-size="74.0" fill="#FFFFFF" transform="matrix(1.00, 0.00, -0.00, -1.00, 262.4, 88.0)">E</text><text xml:space="preserve" font-family="FCBARCELONA-Extrabold" font-weight="bold" font-size="74.0" fill="#FFFFFF" transform="matrix(1.00, 0.00, -0.00, -1.00, 302.5, 88.0)">N</text><text xml:space="preserve" font-family="FCBARCELONA-Extrabold" font-weight="bold" font-size="74.0" fill="#FFFFFF" transform="matrix(1.00, 0.00, -0.00, -1.00, 350.4, 88.0)">C</text><text xml:space="preserve" font-family="FCBARCELONA-Extrabold" font-weight="bold" font-size="74.0" fill="#FFFFFF" transform="matrix(1.00, 0.00, -0.00, -1.00, 390.9, 88.0)">E</text><text xml:space="preserve" font-family="Arial-BoldMT" font-weight="bold" font-size="74.0" fill="#FFFFFF" transform="matrix(1.00, 0.00, -0.00, -1.00, 430.9, 88.0)"> </text><text xml:space="preserve" font-family="FCBARCELONA-Extrabold" font-weight="bold" font-size="74.0" fill="#FFFFFF" transform="matrix(1.00, 0.00, -0.00, -1.00, 47.0, 3.0)">I</text><text xml:space="preserve" font-family="FCBARCELONA-Extrabold" font-weight="bold" font-size="74.0" fill="#FFFFFF" transform="matrix(1.00, 0.00, -0.00, -1.00, 73.8, 3.0)">N</text><text xml:space="preserve" font-family="FCBARCELONA-Extrabold" font-weight="bold" font-size="74.0" fill="#FFFFFF" transform="matrix(1.00, 0.00, -0.00, -1.00, 121.7, 3.0)"> </text><text xml:space="preserve" font-family="FCBARCELONA-Extrabold" font-weight="bold" font-size="74.0" fill="#FFFFFF" transform="matrix(1.00, 0.00, -0.00, -1.00, 136.1, 3.0)">2</text><text xml:space="preserve" font-family="FCBARCELONA-Extrabold" font-weight="bold" font-size="74.0" fill="#FFFFFF" transform="matrix(1.00, 0.00, -0.00, -1.00, 173.7, 3.0)">0</text><text xml:space="preserve" font-family="FCBARCELONA-Extrabold" font-weight="bold" font-size="74.0" fill="#FFFFFF" transform="matrix(1.00, 0.00, -0.00, -1.00, 216.7, 3.0)">1</text><text xml:space="preserve" font-family="FCBARCELONA-Extrabold" font-weight="bold" font-size="74.0" fill="#FFFFFF" transform="matrix(1.00, 0.00, -0.00, -1.00, 247.5, 3.0)">6</text><text xml:space="preserve" font-family="FCBARCELONA-Extrabold" font-weight="bold" font-size="74.0" fill="#FFFFFF" transform="matrix(1.00, 0.00, -0.00, -1.00, 287.8, 3.0)">/</text><text xml:space="preserve" font-family="FCBARCELONA-Extrabold" font-weight="bold" font-size="74.0" fill="#FFFFFF" transform="matrix(1.00, 0.00, -0.00, -1.00, 317.6, 3.0)">1</text><text xml:space="preserve" font-family="FCBARCELONA-Extrabold" font-weight="bold" font-size="74.0" fill="#FFFFFF" transform="matrix(1.00, 0.00, -0.00, -1.00, 348.4, 3.0)">7</text></g></svg>