<?xml version="1.0" encoding="UTF-8" standalone="no"?><svg xmlns="http://www.w3.org/2000/svg" xmlns:xlink="http://www.w3.org/1999/xlink" clip-rule="evenodd" stroke-miterlimit="4.00" viewBox="0 0 344 189"><desc>SVG generated by Keynote</desc><defs></defs><g transform="matrix(1.00, 0.00, -0.00, -1.00, 0.0, 189.0)"><g><clipPath id="clip-825"><path d="M 290.0 180.8 L 342.7 180.8 L 342.7 128.4 L 290.0 128.4 Z M 290.0 180.8 "></path></clipPath><g clip-path="url(#clip-825)"><g><clipPath id="clip-826"><path d="M 289.0 127.4 L 343.7 127.4 L 343.7 181.8 L 289.0 181.8 Z M 289.0 127.4 "></path></clipPath><g clip-path="url(#clip-826)"><image xlink:href="026A0A127E95E459C5B6D216535BA453.png" width="41.00" height="41.00" transform="matrix(1.28, 0.00, -0.00, -1.28, 290.0, 180.8)"></image></g></g></g></g><g><clipPath id="clip-827"><path d="M 330.6 112.1 L 330.6 14.5 L 305.0 14.5 L 305.0 112.1 Z M 330.6 112.1 "></path></clipPath><g clip-path="url(#clip-827)"><g><clipPath id="clip-828"><path d="M 329.6 111.1 L 329.6 15.5 L 306.0 15.5 L 306.0 111.1 Z M 329.6 111.1 "></path></clipPath><g clip-path="url(#clip-828)"><image xlink:href="8BCC9CD1B25F72DD8CD2805D0ABFBEE8.png" width="75.00" height="18.00" transform="matrix(0.00, -1.27, -1.31, 0.00, 329.6, 111.1)"></image></g></g></g></g><g><clipPath id="clip-829"><path d="M 213.6 184.0 L 213.6 162.5 L 44.7 162.5 L 44.7 184.0 Z M 213.6 184.0 "></path></clipPath><g clip-path="url(#clip-829)"><path d="M 45.7 183.0 L 45.7 163.5 L 212.6 163.5 L 212.6 183.0 L 45.7 183.0 Z M 45.7 183.0 " fill="#CE122B"></path></g></g><g><clipPath id="clip-830"><path d="M 167.2 145.0 L 167.2 123.6 L 44.7 123.6 L 44.7 145.0 Z M 167.2 145.0 "></path></clipPath><g clip-path="url(#clip-830)"><path d="M 166.2 124.6 L 166.2 144.0 L 45.7 144.0 L 45.7 124.6 L 166.2 124.6 Z M 166.2 124.6 " fill="#FFFFFF"></path></g></g><g><clipPath id="clip-831"><path d="M 139.7 106.2 L 139.7 84.7 L 44.7 84.7 L 44.7 106.2 Z M 139.7 106.2 "></path></clipPath><g clip-path="url(#clip-831)"><path d="M 138.7 85.7 L 138.7 105.2 L 45.7 105.2 L 45.7 85.7 L 138.7 85.7 Z M 138.7 85.7 " fill="#FFFFFF"></path></g></g><g><clipPath id="clip-832"><path d="M 86.9 67.3 L 86.9 45.8 L 44.7 45.8 L 44.7 67.3 Z M 86.9 67.3 "></path></clipPath><g clip-path="url(#clip-832)"><path d="M 85.9 46.8 L 85.9 66.3 L 45.7 66.3 L 45.7 46.8 L 85.9 46.8 Z M 85.9 46.8 " fill="#FFFFFF"></path></g></g><g><clipPath id="clip-833"><path d="M 86.5 28.5 L 86.5 7.0 L 44.7 7.0 L 44.7 28.5 Z M 86.5 28.5 "></path></clipPath><g clip-path="url(#clip-833)"><path d="M 85.5 8.0 L 85.5 27.5 L 45.7 27.5 L 45.7 8.0 L 85.5 8.0 Z M 85.5 8.0 " fill="#FFFFFF"></path></g></g><g><clipPath id="clip-834"><path d="M 289.1 186.0 L 289.1 160.4 L 221.0 160.4 L 221.0 186.0 Z M 289.1 186.0 "></path></clipPath><g clip-path="url(#clip-834)"><g><clipPath id="clip-835"><path d="M 288.1 185.0 L 288.1 161.4 L 222.0 161.4 L 222.0 185.0 Z M 288.1 185.0 "></path></clipPath><g clip-path="url(#clip-835)"><image xlink:href="EDEEB5433E8953F526CB5CE2B18BE8C7.png" width="18.00" height="52.00" transform="matrix(0.00, -1.31, -1.27, 0.00, 288.1, 185.0)"></image></g></g></g></g><g><clipPath id="clip-836"><path d="M 229.8 147.1 L 229.8 121.5 L 174.6 121.5 L 174.6 147.1 Z M 229.8 147.1 "></path></clipPath><g clip-path="url(#clip-836)"><g><clipPath id="clip-837"><path d="M 228.8 146.1 L 228.8 122.5 L 175.6 122.5 L 175.6 146.1 Z M 228.8 146.1 "></path></clipPath><g clip-path="url(#clip-837)"><image xlink:href="E679D540D5ACFA5122A4912411217B3E.png" width="18.00" height="42.00" transform="matrix(0.00, -1.31, -1.27, 0.00, 228.8, 146.1)"></image></g></g></g></g><g><clipPath id="clip-838"><path d="M 209.5 108.2 L 209.5 82.6 L 147.3 82.6 L 147.3 108.2 Z M 209.5 108.2 "></path></clipPath><g clip-path="url(#clip-838)"><g><clipPath id="clip-839"><path d="M 208.5 107.2 L 208.5 83.6 L 148.3 83.6 L 148.3 107.2 Z M 208.5 107.2 "></path></clipPath><g clip-path="url(#clip-839)"><image xlink:href="66FA7F3E3C538E679A8010FB2F4F1775.png" width="18.00" height="47.00" transform="matrix(0.00, -1.31, -1.28, 0.00, 208.5, 107.2)"></image></g></g></g></g><g><clipPath id="clip-840"><path d="M 154.8 69.3 L 154.8 43.7 L 94.3 43.7 L 94.3 69.3 Z M 154.8 69.3 "></path></clipPath><g clip-path="url(#clip-840)"><g><clipPath id="clip-841"><path d="M 153.8 68.3 L 153.8 44.7 L 95.3 44.7 L 95.3 68.3 Z M 153.8 68.3 "></path></clipPath><g clip-path="url(#clip-841)"><image xlink:href="03389C8836B15CE444E89D36D8BF7395.png" width="18.00" height="46.00" transform="matrix(0.00, -1.31, -1.27, 0.00, 153.8, 68.3)"></image></g></g></g></g><g><clipPath id="clip-842"><path d="M 153.5 30.4 L 153.5 4.8 L 94.2 4.8 L 94.2 30.4 Z M 153.5 30.4 "></path></clipPath><g clip-path="url(#clip-842)"><g><clipPath id="clip-843"><path d="M 152.5 29.4 L 152.5 5.8 L 95.2 5.8 L 95.2 29.4 Z M 152.5 29.4 "></path></clipPath><g clip-path="url(#clip-843)"><image xlink:href="BD6F219565366BB63DC47E571291836D.png" width="18.00" height="45.00" transform="matrix(0.00, -1.31, -1.27, 0.00, 152.5, 29.4)"></image></g></g></g></g><g><clipPath id="clip-844"><path d="M 2.0 110.3 L 33.0 110.3 L 33.0 78.9 L 2.0 78.9 Z M 2.0 110.3 "></path></clipPath><g clip-path="url(#clip-844)"><g><clipPath id="clip-845"><path d="M 1.0 77.9 L 34.0 77.9 L 34.0 111.3 L 1.0 111.3 Z M 1.0 77.9 "></path></clipPath><g clip-path="url(#clip-845)"><image xlink:href="171D08C5914163E280A668C2991D80A3.png" width="24.00" height="25.00" transform="matrix(1.29, 0.00, -0.00, -1.26, 2.0, 110.3)"></image></g></g></g></g><g><clipPath id="clip-846"><path d="M 6.3 149.5 L 28.7 149.5 L 28.7 118.1 L 6.3 118.1 Z M 6.3 149.5 "></path></clipPath><g clip-path="url(#clip-846)"><g><clipPath id="clip-847"><path d="M 5.3 117.1 L 29.7 117.1 L 29.7 150.5 L 5.3 150.5 Z M 5.3 117.1 "></path></clipPath><g clip-path="url(#clip-847)"><image xlink:href="C447327CA9A64526589D881BA40759C3.png" width="18.00" height="25.00" transform="matrix(1.25, 0.00, -0.00, -1.26, 6.3, 149.5)"></image></g></g></g></g><g><clipPath id="clip-848"><path d="M 2.0 187.9 L 33.0 187.9 L 33.0 156.5 L 2.0 156.5 Z M 2.0 187.9 "></path></clipPath><g clip-path="url(#clip-848)"><g><clipPath id="clip-849"><path d="M 1.0 155.5 L 34.0 155.5 L 34.0 188.9 L 1.0 188.9 Z M 1.0 155.5 "></path></clipPath><g clip-path="url(#clip-849)"><image xlink:href="61542DA0523257B2A7EE061F2FB6CFD4.png" width="24.00" height="25.00" transform="matrix(1.29, 0.00, -0.00, -1.26, 2.0, 187.9)"></image></g></g></g></g><g><clipPath id="clip-850"><path d="M 1.8 73.3 L 33.2 73.3 L 33.2 41.9 L 1.8 41.9 Z M 1.8 73.3 "></path></clipPath><g clip-path="url(#clip-850)"><g><clipPath id="clip-851"><path d="M 0.8 40.9 L 34.2 40.9 L 34.2 74.3 L 0.8 74.3 Z M 0.8 40.9 "></path></clipPath><g clip-path="url(#clip-851)"><image xlink:href="9BAA46BAEDBC94D639869F9BA8D20632.png" width="25.00" height="25.00" transform="matrix(1.26, 0.00, -0.00, -1.26, 1.8, 73.3)"></image></g></g></g></g><g><clipPath id="clip-852"><path d="M 1.7 33.0 L 33.3 33.0 L 33.3 1.6 L 1.7 1.6 Z M 1.7 33.0 "></path></clipPath><g clip-path="url(#clip-852)"><g><clipPath id="clip-853"><path d="M 0.7 0.6 L 34.3 0.6 L 34.3 34.0 L 0.7 34.0 Z M 0.7 0.6 "></path></clipPath><g clip-path="url(#clip-853)"><image xlink:href="5E615D846C70E763A8557208B547ADAC.png" width="25.00" height="25.00" transform="matrix(1.26, 0.00, -0.00, -1.26, 1.7, 33.0)"></image></g></g></g></g></g></svg>