<?xml version="1.0" encoding="UTF-8" standalone="no"?><svg xmlns="http://www.w3.org/2000/svg" xmlns:xlink="http://www.w3.org/1999/xlink" clip-rule="evenodd" stroke-miterlimit="4.00" viewBox="0 0 374 29"><desc>SVG generated by Keynote</desc><defs></defs><g transform="matrix(1.00, 0.00, -0.00, -1.00, 0.0, 29.0)"><text xml:space="preserve" font-family="FCBARCELONA-Regular" font-size="36.0" fill="#FDC42B" transform="matrix(1.00, 0.00, -0.00, -1.00, -1.0, 2.0)">F</text><text xml:space="preserve" font-family="FCBARCELONA-Regular" font-size="36.0" fill="#FDC42B" transform="matrix(1.00, 0.00, -0.00, -1.00, 16.0, 2.0)">C</text><text xml:space="preserve" font-family="FCBARCELONA-Regular" font-size="36.0" fill="#FDC42B" transform="matrix(1.00, 0.00, -0.00, -1.00, 36.3, 2.0)"> </text><text xml:space="preserve" font-family="FCBARCELONA-Regular" font-size="36.0" fill="#FDC42B" transform="matrix(1.00, 0.00, -0.00, -1.00, 44.3, 2.0)">B</text><text xml:space="preserve" font-family="FCBARCELONA-Regular" font-size="36.0" fill="#FDC42B" transform="matrix(1.00, 0.00, -0.00, -1.00, 65.4, 2.0)">A</text><text xml:space="preserve" font-family="FCBARCELONA-Regular" font-size="36.0" fill="#FDC42B" transform="matrix(1.00, 0.00, -0.00, -1.00, 86.0, 2.0)">R</text><text xml:space="preserve" font-family="FCBARCELONA-Regular" font-size="36.0" fill="#FDC42B" transform="matrix(1.00, 0.00, -0.00, -1.00, 107.3, 2.0)">C</text><text xml:space="preserve" font-family="FCBARCELONA-Regular" font-size="36.0" fill="#FDC42B" transform="matrix(1.00, 0.00, -0.00, -1.00, 127.6, 2.0)">E</text><text xml:space="preserve" font-family="FCBARCELONA-Regular" font-size="36.0" fill="#FDC42B" transform="matrix(1.00, 0.00, -0.00, -1.00, 146.5, 2.0)">L</text><text xml:space="preserve" font-family="FCBARCELONA-Regular" font-size="36.0" fill="#FDC42B" transform="matrix(1.00, 0.00, -0.00, -1.00, 162.5, 2.0)">O</text><text xml:space="preserve" font-family="FCBARCELONA-Regular" font-size="36.0" fill="#FDC42B" transform="matrix(1.00, 0.00, -0.00, -1.00, 185.2, 2.0)">N</text><text xml:space="preserve" font-family="FCBARCELONA-Regular" font-size="36.0" fill="#FDC42B" transform="matrix(1.00, 0.00, -0.00, -1.00, 208.7, 2.0)">A</text><text xml:space="preserve" font-family="FCBARCELONA-Regular" font-size="36.0" fill="#FDC42B" transform="matrix(1.00, 0.00, -0.00, -1.00, 229.1, 2.0)"> </text><text xml:space="preserve" font-family="FCBARCELONA-Regular" font-size="36.0" fill="#FDC42B" transform="matrix(1.00, 0.00, -0.00, -1.00, 236.8, 2.0)">W</text><text xml:space="preserve" font-family="FCBARCELONA-Regular" font-size="36.0" fill="#FDC42B" transform="matrix(1.00, 0.00, -0.00, -1.00, 268.6, 2.0)">E</text><text xml:space="preserve" font-family="FCBARCELONA-Regular" font-size="36.0" fill="#FDC42B" transform="matrix(1.00, 0.00, -0.00, -1.00, 287.5, 2.0)">B</text><text xml:space="preserve" font-family="FCBARCELONA-Regular" font-size="36.0" fill="#FDC42B" transform="matrix(1.00, 0.00, -0.00, -1.00, 308.6, 2.0)">S</text><text xml:space="preserve" font-family="FCBARCELONA-Regular" font-size="36.0" fill="#FDC42B" transform="matrix(1.00, 0.00, -0.00, -1.00, 327.1, 2.0)">I</text><text xml:space="preserve" font-family="FCBARCELONA-Regular" font-size="36.0" fill="#FDC42B" transform="matrix(1.00, 0.00, -0.00, -1.00, 338.6, 2.0)">T</text><text xml:space="preserve" font-family="FCBARCELONA-Regular" font-size="36.0" fill="#FDC42B" transform="matrix(1.00, 0.00, -0.00, -1.00, 354.9, 2.0)">E</text></g></svg>