<?xml version="1.0" encoding="UTF-8" standalone="no"?><svg xmlns="http://www.w3.org/2000/svg" xmlns:xlink="http://www.w3.org/1999/xlink" clip-rule="evenodd" stroke-miterlimit="4.00" viewBox="0 0 372 297"><desc>SVG generated by Keynote</desc><defs></defs><g transform="matrix(1.00, 0.00, -0.00, -1.00, 0.0, 297.0)"><g><clipPath id="clip-953"><path d="M 0.0 0.0 L 372.0 0.0 L 372.0 241.7 L 0.0 241.7 Z M 0.0 0.0 "></path></clipPath><g clip-path="url(#clip-953)"><text xml:space="preserve" font-family="FCBARCELONA-Extrabold" font-weight="bold" font-size="176.0" fill="#FDC42B" transform="matrix(1.00, 0.00, -0.00, -1.00, -4.0, 173.0)">2</text><text xml:space="preserve" font-family="FCBARCELONA-Extrabold" font-weight="bold" font-size="176.0" fill="#FDC42B" transform="matrix(1.00, 0.00, -0.00, -1.00, 85.4, 173.0)">.</text><text xml:space="preserve" font-family="FCBARCELONA-Extrabold" font-weight="bold" font-size="176.0" fill="#FDC42B" transform="matrix(1.00, 0.00, -0.00, -1.00, 129.2, 173.0)">3</text><text xml:space="preserve" font-family="FCBARCELONA-Extrabold" font-weight="bold" font-size="176.0" fill="#FDC42B" transform="matrix(1.00, 0.00, -0.00, -1.00, 221.5, 173.0)">M</text><text xml:space="preserve" font-family="FCBARCELONA-Extrabold" font-weight="bold" font-size="84.0" fill="#FFFFFF" transform="matrix(1.00, 0.00, -0.00, -1.00, 371.8, 173.0)"> </text></g></g><text xml:space="preserve" font-family="FCBARCELONA-Extrabold" font-weight="bold" font-size="74.0" fill="#FFFFFF" transform="matrix(1.00, 0.00, -0.00, -1.00, 51.0, 88.0)">T</text><text xml:space="preserve" font-family="FCBARCELONA-Extrabold" font-weight="bold" font-size="74.0" fill="#FFFFFF" transform="matrix(1.00, 0.00, -0.00, -1.00, 89.2, 88.0)">I</text><text xml:space="preserve" font-family="FCBARCELONA-Extrabold" font-weight="bold" font-size="74.0" fill="#FFFFFF" transform="matrix(1.00, 0.00, -0.00, -1.00, 115.2, 88.0)">C</text><text xml:space="preserve" font-family="FCBARCELONA-Extrabold" font-weight="bold" font-size="74.0" fill="#FFFFFF" transform="matrix(1.00, 0.00, -0.00, -1.00, 155.8, 88.0)">K</text><text xml:space="preserve" font-family="FCBARCELONA-Extrabold" font-weight="bold" font-size="74.0" fill="#FFFFFF" transform="matrix(1.00, 0.00, -0.00, -1.00, 200.1, 88.0)">E</text><text xml:space="preserve" font-family="FCBARCELONA-Extrabold" font-weight="bold" font-size="74.0" fill="#FFFFFF" transform="matrix(1.00, 0.00, -0.00, -1.00, 240.1, 88.0)">T</text><text xml:space="preserve" font-family="FCBARCELONA-Extrabold" font-weight="bold" font-size="74.0" fill="#FFFFFF" transform="matrix(1.00, 0.00, -0.00, -1.00, 277.7, 88.0)">S</text><text xml:space="preserve" font-family="FCBARCELONA-Extrabold" font-weight="bold" font-size="74.0" fill="#FFFFFF" transform="matrix(1.00, 0.00, -0.00, -1.00, 317.4, 88.0)"> </text><text xml:space="preserve" font-family="FCBARCELONA-Extrabold" font-weight="bold" font-size="74.0" fill="#FFFFFF" transform="matrix(1.00, 0.00, -0.00, -1.00, 101.0, 3.0)">S</text><text xml:space="preserve" font-family="FCBARCELONA-Extrabold" font-weight="bold" font-size="74.0" fill="#FFFFFF" transform="matrix(1.00, 0.00, -0.00, -1.00, 140.7, 3.0)">O</text><text xml:space="preserve" font-family="FCBARCELONA-Extrabold" font-weight="bold" font-size="74.0" fill="#FFFFFF" transform="matrix(1.00, 0.00, -0.00, -1.00, 187.2, 3.0)">L</text><text xml:space="preserve" font-family="FCBARCELONA-Extrabold" font-weight="bold" font-size="74.0" fill="#FFFFFF" transform="matrix(1.00, 0.00, -0.00, -1.00, 221.4, 3.0)">D</text><text xml:space="preserve" font-family="FCBARCELONA-Extrabold" font-weight="bold" font-size="74.0" fill="#FFFFFF" transform="matrix(1.00, 0.00, -0.00, -1.00, 267.1, 3.0)"> </text></g></svg>