<?xml version="1.0" encoding="UTF-8" standalone="no"?><svg xmlns="http://www.w3.org/2000/svg" xmlns:xlink="http://www.w3.org/1999/xlink" clip-rule="evenodd" stroke-miterlimit="4.00" viewBox="0 0 484 298"><desc>SVG generated by Keynote</desc><defs></defs><g transform="matrix(1.00, 0.00, -0.00, -1.00, 0.0, 298.0)"><g><clipPath id="clip-950"><path d="M 0.0 0.0 L 484.0 0.0 L 484.0 241.6 L 0.0 241.6 Z M 0.0 0.0 "></path></clipPath><g clip-path="url(#clip-950)"><text xml:space="preserve" font-family="FCBARCELONA-Extrabold" font-weight="bold" font-size="176.0" fill="#FDC42B" transform="matrix(1.00, 0.00, -0.00, -1.00, 9.0, 173.0)">2</text><text xml:space="preserve" font-family="FCBARCELONA-Extrabold" font-weight="bold" font-size="176.0" fill="#FDC42B" transform="matrix(1.00, 0.00, -0.00, -1.00, 98.4, 173.0)">8</text><text xml:space="preserve" font-family="FCBARCELONA-Extrabold" font-weight="bold" font-size="176.0" fill="#FDC42B" transform="matrix(1.00, 0.00, -0.00, -1.00, 199.1, 173.0)">8</text><text xml:space="preserve" font-family="FCBARCELONA-Extrabold" font-weight="bold" font-size="176.0" fill="#FDC42B" transform="matrix(1.00, 0.00, -0.00, -1.00, 299.8, 173.0)">M</text><text xml:space="preserve" font-family="FCBARCELONA-Extrabold" font-weight="bold" font-size="176.0" fill="#FDC42B" transform="matrix(1.00, 0.00, -0.00, -1.00, 450.1, 173.0)"> </text><text xml:space="preserve" font-family="FCBARCELONA-Extrabold" font-weight="bold" font-size="84.0" fill="#FFFFFF" transform="matrix(1.00, 0.00, -0.00, -1.00, 484.4, 173.0)"> </text></g></g><text xml:space="preserve" font-family="FCBARCELONA-Extrabold" font-weight="bold" font-size="74.0" fill="#FFFFFF" transform="matrix(1.00, 0.00, -0.00, -1.00, -2.0, 88.0)">F</text><text xml:space="preserve" font-family="FCBARCELONA-Extrabold" font-weight="bold" font-size="74.0" fill="#FFFFFF" transform="matrix(1.00, 0.00, -0.00, -1.00, 33.6, 88.0)">A</text><text xml:space="preserve" font-family="FCBARCELONA-Extrabold" font-weight="bold" font-size="74.0" fill="#FFFFFF" transform="matrix(1.00, 0.00, -0.00, -1.00, 79.6, 88.0)">N</text><text xml:space="preserve" font-family="FCBARCELONA-Extrabold" font-weight="bold" font-size="74.0" fill="#FFFFFF" transform="matrix(1.00, 0.00, -0.00, -1.00, 127.5, 88.0)">S</text><text xml:space="preserve" font-family="FCBARCELONA-Extrabold" font-weight="bold" font-size="74.0" fill="#FFFFFF" transform="matrix(1.00, 0.00, -0.00, -1.00, 167.2, 88.0)"> </text><text xml:space="preserve" font-family="FCBARCELONA-Extrabold" font-weight="bold" font-size="74.0" fill="#FFFFFF" transform="matrix(1.00, 0.00, -0.00, -1.00, 181.2, 88.0)">A</text><text xml:space="preserve" font-family="FCBARCELONA-Extrabold" font-weight="bold" font-size="74.0" fill="#FFFFFF" transform="matrix(1.00, 0.00, -0.00, -1.00, 227.2, 88.0)">R</text><text xml:space="preserve" font-family="FCBARCELONA-Extrabold" font-weight="bold" font-size="74.0" fill="#FFFFFF" transform="matrix(1.00, 0.00, -0.00, -1.00, 271.4, 88.0)">O</text><text xml:space="preserve" font-family="FCBARCELONA-Extrabold" font-weight="bold" font-size="74.0" fill="#FFFFFF" transform="matrix(1.00, 0.00, -0.00, -1.00, 318.0, 88.0)">U</text><text xml:space="preserve" font-family="FCBARCELONA-Extrabold" font-weight="bold" font-size="74.0" fill="#FFFFFF" transform="matrix(1.00, 0.00, -0.00, -1.00, 366.0, 88.0)">N</text><text xml:space="preserve" font-family="FCBARCELONA-Extrabold" font-weight="bold" font-size="74.0" fill="#FFFFFF" transform="matrix(1.00, 0.00, -0.00, -1.00, 413.9, 88.0)">D</text><text xml:space="preserve" font-family="FCBARCELONA-Extrabold" font-weight="bold" font-size="74.0" fill="#FFFFFF" transform="matrix(1.00, 0.00, -0.00, -1.00, 459.6, 88.0)"> </text><text xml:space="preserve" font-family="FCBARCELONA-Extrabold" font-weight="bold" font-size="74.0" fill="#FFFFFF" transform="matrix(1.00, 0.00, -0.00, -1.00, 55.0, 3.0)">T</text><text xml:space="preserve" font-family="FCBARCELONA-Extrabold" font-weight="bold" font-size="74.0" fill="#FFFFFF" transform="matrix(1.00, 0.00, -0.00, -1.00, 93.2, 3.0)">H</text><text xml:space="preserve" font-family="FCBARCELONA-Extrabold" font-weight="bold" font-size="74.0" fill="#FFFFFF" transform="matrix(1.00, 0.00, -0.00, -1.00, 141.3, 3.0)">E</text><text xml:space="preserve" font-family="FCBARCELONA-Extrabold" font-weight="bold" font-size="74.0" fill="#FFFFFF" transform="matrix(1.00, 0.00, -0.00, -1.00, 181.3, 3.0)"> </text><text xml:space="preserve" font-family="FCBARCELONA-Extrabold" font-weight="bold" font-size="74.0" fill="#FFFFFF" transform="matrix(1.00, 0.00, -0.00, -1.00, 195.7, 3.0)">G</text><text xml:space="preserve" font-family="FCBARCELONA-Extrabold" font-weight="bold" font-size="74.0" fill="#FFFFFF" transform="matrix(1.00, 0.00, -0.00, -1.00, 240.1, 3.0)">L</text><text xml:space="preserve" font-family="FCBARCELONA-Extrabold" font-weight="bold" font-size="74.0" fill="#FFFFFF" transform="matrix(1.00, 0.00, -0.00, -1.00, 273.9, 3.0)">O</text><text xml:space="preserve" font-family="FCBARCELONA-Extrabold" font-weight="bold" font-size="74.0" fill="#FFFFFF" transform="matrix(1.00, 0.00, -0.00, -1.00, 320.4, 3.0)">B</text><text xml:space="preserve" font-family="FCBARCELONA-Extrabold" font-weight="bold" font-size="74.0" fill="#FFFFFF" transform="matrix(1.00, 0.00, -0.00, -1.00, 364.1, 3.0)">E</text></g></svg>