<?xml version="1.0" encoding="UTF-8" standalone="no"?><svg xmlns="http://www.w3.org/2000/svg" xmlns:xlink="http://www.w3.org/1999/xlink" clip-rule="evenodd" stroke-miterlimit="4.00" viewBox="0 0 396 295"><desc>SVG generated by Keynote</desc><defs></defs><g transform="matrix(1.00, 0.00, -0.00, -1.00, 0.0, 295.0)"><g><clipPath id="clip-952"><path d="M 0.0 0.0 L 396.0 0.0 L 396.0 241.7 L 0.0 241.7 Z M 0.0 0.0 "></path></clipPath><g clip-path="url(#clip-952)"><text xml:space="preserve" font-family="FCBARCELONA-Extrabold" font-weight="bold" font-size="176.0" fill="#FDC42B" transform="matrix(1.00, 0.00, -0.00, -1.00, 3.0, 173.0)">6</text><text xml:space="preserve" font-family="FCBARCELONA-Extrabold" font-weight="bold" font-size="176.0" fill="#FDC42B" transform="matrix(1.00, 0.00, -0.00, -1.00, 98.9, 173.0)">.</text><text xml:space="preserve" font-family="FCBARCELONA-Extrabold" font-weight="bold" font-size="176.0" fill="#FDC42B" transform="matrix(1.00, 0.00, -0.00, -1.00, 142.7, 173.0)">4</text><text xml:space="preserve" font-family="FCBARCELONA-Extrabold" font-weight="bold" font-size="176.0" fill="#FDC42B" transform="matrix(1.00, 0.00, -0.00, -1.00, 241.7, 173.0)">M</text><text xml:space="preserve" font-family="FCBARCELONA-Extrabold" font-weight="bold" font-size="106.0" fill="#FFFFFF" transform="matrix(1.00, 0.00, -0.00, -1.00, 392.0, 173.0)"> </text></g></g><text xml:space="preserve" font-family="FCBARCELONA-Extrabold" font-weight="bold" font-size="74.0" fill="#FFFFFF" transform="matrix(1.00, 0.00, -0.00, -1.00, 1.0, 88.0)">V</text><text xml:space="preserve" font-family="FCBARCELONA-Extrabold" font-weight="bold" font-size="74.0" fill="#FFFFFF" transform="matrix(1.00, 0.00, -0.00, -1.00, 45.9, 88.0)">I</text><text xml:space="preserve" font-family="FCBARCELONA-Extrabold" font-weight="bold" font-size="74.0" fill="#FFFFFF" transform="matrix(1.00, 0.00, -0.00, -1.00, 72.7, 88.0)">S</text><text xml:space="preserve" font-family="FCBARCELONA-Extrabold" font-weight="bold" font-size="74.0" fill="#FFFFFF" transform="matrix(1.00, 0.00, -0.00, -1.00, 112.4, 88.0)">I</text><text xml:space="preserve" font-family="FCBARCELONA-Extrabold" font-weight="bold" font-size="74.0" fill="#FFFFFF" transform="matrix(1.00, 0.00, -0.00, -1.00, 139.2, 88.0)">T</text><text xml:space="preserve" font-family="FCBARCELONA-Extrabold" font-weight="bold" font-size="74.0" fill="#FFFFFF" transform="matrix(1.00, 0.00, -0.00, -1.00, 175.2, 88.0)">O</text><text xml:space="preserve" font-family="FCBARCELONA-Extrabold" font-weight="bold" font-size="74.0" fill="#FFFFFF" transform="matrix(1.00, 0.00, -0.00, -1.00, 221.7, 88.0)">R</text><text xml:space="preserve" font-family="FCBARCELONA-Extrabold" font-weight="bold" font-size="74.0" fill="#FFFFFF" transform="matrix(1.00, 0.00, -0.00, -1.00, 266.0, 88.0)">S</text><text xml:space="preserve" font-family="FCBARCELONA-Extrabold" font-weight="bold" font-size="74.0" fill="#FFFFFF" transform="matrix(1.00, 0.00, -0.00, -1.00, 305.7, 88.0)"> </text><text xml:space="preserve" font-family="FCBARCELONA-Extrabold" font-weight="bold" font-size="74.0" fill="#FFFFFF" transform="matrix(1.00, 0.00, -0.00, -1.00, 320.1, 88.0)">I</text><text xml:space="preserve" font-family="FCBARCELONA-Extrabold" font-weight="bold" font-size="74.0" fill="#FFFFFF" transform="matrix(1.00, 0.00, -0.00, -1.00, 346.9, 88.0)">N</text><text xml:space="preserve" font-family="FCBARCELONA-Extrabold" font-weight="bold" font-size="74.0" fill="#FFFFFF" transform="matrix(1.00, 0.00, -0.00, -1.00, 394.8, 88.0)"> </text><text xml:space="preserve" font-family="FCBARCELONA-Extrabold" font-weight="bold" font-size="74.0" fill="#FFFFFF" transform="matrix(1.00, 0.00, -0.00, -1.00, 73.0, 3.0)">2</text><text xml:space="preserve" font-family="FCBARCELONA-Extrabold" font-weight="bold" font-size="74.0" fill="#FFFFFF" transform="matrix(1.00, 0.00, -0.00, -1.00, 110.6, 3.0)">0</text><text xml:space="preserve" font-family="FCBARCELONA-Extrabold" font-weight="bold" font-size="74.0" fill="#FFFFFF" transform="matrix(1.00, 0.00, -0.00, -1.00, 153.6, 3.0)">1</text><text xml:space="preserve" font-family="FCBARCELONA-Extrabold" font-weight="bold" font-size="74.0" fill="#FFFFFF" transform="matrix(1.00, 0.00, -0.00, -1.00, 184.4, 3.0)">6</text><text xml:space="preserve" font-family="FCBARCELONA-Extrabold" font-weight="bold" font-size="74.0" fill="#FFFFFF" transform="matrix(1.00, 0.00, -0.00, -1.00, 224.7, 3.0)">/</text><text xml:space="preserve" font-family="FCBARCELONA-Extrabold" font-weight="bold" font-size="74.0" fill="#FFFFFF" transform="matrix(1.00, 0.00, -0.00, -1.00, 254.5, 3.0)">1</text><text xml:space="preserve" font-family="FCBARCELONA-Extrabold" font-weight="bold" font-size="74.0" fill="#FFFFFF" transform="matrix(1.00, 0.00, -0.00, -1.00, 285.3, 3.0)">7</text></g></svg>