<?xml version="1.0" encoding="UTF-8" standalone="no"?><svg xmlns="http://www.w3.org/2000/svg" xmlns:xlink="http://www.w3.org/1999/xlink" clip-rule="evenodd" stroke-miterlimit="4.00" viewBox="0 0 250 218"><desc>SVG generated by Keynote</desc><defs></defs><g transform="matrix(1.00, 0.00, -0.00, -1.00, 0.0, 218.0)"><g><clipPath id="clip-817"><path d="M 15.9 0.8 L 232.1 0.8 L 232.1 217.0 L 15.9 217.0 Z M 15.9 0.8 "></path></clipPath><g clip-path="url(#clip-817)"><path d="M 172.6 29.6 C 212.1 69.1 212.1 133.1 172.6 172.6 C 133.1 212.1 69.1 212.1 29.6 172.6 C -9.9 133.1 -9.9 69.1 29.6 29.6 C 69.1 -9.9 133.1 -9.9 172.6 29.6 Z M 172.6 29.6 " fill="none" stroke="#FDC42B" stroke-width="12.00" stroke-linejoin="round" transform="matrix(1.00, 0.00, 0.00, -1.00, 22.9, 210.0)"></path></g></g><g><clipPath id="clip-818"><path d="M -11.1 49.5 L 261.5 49.5 L 261.5 192.5 L -11.1 192.5 Z M -11.1 49.5 "></path></clipPath><g clip-path="url(#clip-818)"><text xml:space="preserve" font-family="FCBARCELONA-Extrabold" font-weight="bold" font-size="74.0" fill="#FFFFFF" transform="matrix(1.00, 0.00, -0.00, -1.00, 56.0, 101.0)">1</text><text xml:space="preserve" font-family="FCBARCELONA-Extrabold" font-weight="bold" font-size="74.0" fill="#FFFFFF" transform="matrix(1.00, 0.00, -0.00, -1.00, 86.8, 101.0)">5</text><text xml:space="preserve" font-family="FCBARCELONA-Extrabold" font-weight="bold" font-size="74.0" fill="#FFFFFF" transform="matrix(1.00, 0.00, -0.00, -1.00, 126.5, 101.0)">4</text><text xml:space="preserve" font-family="FCBARCELONA-Extrabold" font-weight="bold" font-size="32.0" fill="#FFFFFF" transform="matrix(1.00, 0.00, -0.00, -1.00, 168.1, 101.0)">M</text><text xml:space="preserve" font-family="FCBARCELONA-Extrabold" font-weight="bold" font-size="32.0" fill="#FFFFFF" transform="matrix(1.00, 0.00, -0.00, -1.00, 195.4, 101.0)"> </text><text xml:space="preserve" font-family="FCBARCELONA-Regular" font-size="18.0" fill="#FDC42B" transform="matrix(1.00, 0.00, -0.00, -1.00, 101.0, 64.0)">V</text><text xml:space="preserve" font-family="FCBARCELONA-Regular" font-size="18.0" fill="#FDC42B" transform="matrix(1.00, 0.00, -0.00, -1.00, 111.3, 64.0)">I</text><text xml:space="preserve" font-family="FCBARCELONA-Regular" font-size="18.0" fill="#FDC42B" transform="matrix(1.00, 0.00, -0.00, -1.00, 117.0, 64.0)">S</text><text xml:space="preserve" font-family="FCBARCELONA-Regular" font-size="18.0" fill="#FDC42B" transform="matrix(1.00, 0.00, -0.00, -1.00, 126.3, 64.0)">I</text><text xml:space="preserve" font-family="FCBARCELONA-Regular" font-size="18.0" fill="#FDC42B" transform="matrix(1.00, 0.00, -0.00, -1.00, 132.1, 64.0)">T</text><text xml:space="preserve" font-family="FCBARCELONA-Regular" font-size="18.0" fill="#FDC42B" transform="matrix(1.00, 0.00, -0.00, -1.00, 140.0, 64.0)">S</text></g></g></g></svg>