<?xml version="1.0" encoding="UTF-8" standalone="no"?><svg xmlns="http://www.w3.org/2000/svg" xmlns:xlink="http://www.w3.org/1999/xlink" clip-rule="evenodd" stroke-miterlimit="4.00" viewBox="0 0 371 322"><desc>SVG generated by Keynote</desc><defs></defs><g transform="matrix(1.00, 0.00, -0.00, -1.00, 0.0, 322.0)"><g><clipPath id="clip-754"><path d="M 46.3 250.3 L 370.2 250.3 L 370.2 312.0 L 46.3 312.0 Z M 46.3 250.3 "></path></clipPath><g clip-path="url(#clip-754)"><path d="M 47.3 311.0 L 369.2 311.0 L 369.2 251.3 L 47.3 251.3 Z M 47.3 311.0 " fill="#FDC42B"></path></g></g><g><clipPath id="clip-755"><path d="M 47.3 242.2 L 369.2 242.2 L 369.2 320.1 L 47.3 320.1 Z M 47.3 242.2 "></path></clipPath><g clip-path="url(#clip-755)"><text xml:space="preserve" font-family="FCBARCELONA-Extrabold" font-weight="bold" font-size="36.0" fill="#000000" transform="matrix(1.00, 0.00, -0.00, -1.00, 64.0, 269.0)"> </text><text xml:space="preserve" font-family="FCBARCELONA-Extrabold" font-weight="bold" font-size="36.0" fill="#000000" transform="matrix(1.00, 0.00, -0.00, -1.00, 71.0, 269.0)"> </text><text xml:space="preserve" font-family="FCBARCELONA-Extrabold" font-weight="bold" font-size="36.0" fill="#000000" transform="matrix(1.00, 0.00, -0.00, -1.00, 78.0, 269.0)"> </text><text xml:space="preserve" font-family="FCBARCELONA-Extrabold" font-weight="bold" font-size="36.0" fill="#000000" transform="matrix(1.00, 0.00, -0.00, -1.00, 85.1, 269.0)">2</text><text xml:space="preserve" font-family="FCBARCELONA-Extrabold" font-weight="bold" font-size="36.0" fill="#000000" transform="matrix(1.00, 0.00, -0.00, -1.00, 103.3, 269.0)">8</text><text xml:space="preserve" font-family="FCBARCELONA-Extrabold" font-weight="bold" font-size="36.0" fill="#000000" transform="matrix(1.00, 0.00, -0.00, -1.00, 123.9, 269.0)">8</text><text xml:space="preserve" font-family="FCBARCELONA-Extrabold" font-weight="bold" font-size="36.0" fill="#000000" transform="matrix(1.00, 0.00, -0.00, -1.00, 144.5, 269.0)">M</text><text xml:space="preserve" font-family="FCBARCELONA-Extrabold" font-weight="bold" font-size="36.0" fill="#000000" transform="matrix(1.00, 0.00, -0.00, -1.00, 175.3, 269.0)"> </text><text xml:space="preserve" font-family="FCBARCELONA-Extrabold" font-weight="bold" font-size="36.0" fill="#000000" transform="matrix(1.00, 0.00, -0.00, -1.00, 182.3, 269.0)"> </text></g></g><g><clipPath id="clip-756"><path d="M 46.3 186.2 L 310.5 186.2 L 310.5 232.6 L 46.3 232.6 Z M 46.3 186.2 "></path></clipPath><g clip-path="url(#clip-756)"><path d="M 47.3 231.6 L 309.5 231.6 L 309.5 187.2 L 47.3 187.2 Z M 47.3 231.6 " fill="#A5A5A5"></path></g></g><g><clipPath id="clip-757"><path d="M 47.3 178.0 L 309.5 178.0 L 309.5 240.8 L 47.3 240.8 Z M 47.3 178.0 "></path></clipPath><g clip-path="url(#clip-757)"><text xml:space="preserve" font-family="FCBARCELONA-Bold" font-weight="bold" font-size="24.0" fill="#000000" transform="matrix(1.00, 0.00, -0.00, -1.00, 64.0, 201.0)"> </text><text xml:space="preserve" font-family="FCBARCELONA-Bold" font-weight="bold" font-size="24.0" fill="#000000" transform="matrix(1.00, 0.00, -0.00, -1.00, 68.8, 201.0)"> </text><text xml:space="preserve" font-family="FCBARCELONA-Bold" font-weight="bold" font-size="24.0" fill="#000000" transform="matrix(1.00, 0.00, -0.00, -1.00, 73.6, 201.0)"> </text><text xml:space="preserve" font-family="FCBARCELONA-Bold" font-weight="bold" font-size="24.0" fill="#000000" transform="matrix(1.00, 0.00, -0.00, -1.00, 78.4, 201.0)"> </text><text xml:space="preserve" font-family="FCBARCELONA-Bold" font-weight="bold" font-size="24.0" fill="#000000" transform="matrix(1.00, 0.00, -0.00, -1.00, 83.2, 201.0)">2</text><text xml:space="preserve" font-family="FCBARCELONA-Bold" font-weight="bold" font-size="24.0" fill="#000000" transform="matrix(1.00, 0.00, -0.00, -1.00, 95.2, 201.0)">5</text><text xml:space="preserve" font-family="FCBARCELONA-Bold" font-weight="bold" font-size="24.0" fill="#000000" transform="matrix(1.00, 0.00, -0.00, -1.00, 108.2, 201.0)">9</text><text xml:space="preserve" font-family="FCBARCELONA-Bold" font-weight="bold" font-size="24.0" fill="#000000" transform="matrix(1.00, 0.00, -0.00, -1.00, 120.9, 201.0)">M</text><text xml:space="preserve" font-family="FCBARCELONA-Bold" font-weight="bold" font-size="24.0" fill="#000000" transform="matrix(1.00, 0.00, -0.00, -1.00, 140.6, 201.0)"> </text></g></g><g><clipPath id="clip-758"><path d="M 46.3 121.9 L 250.1 121.9 L 250.1 166.9 L 46.3 166.9 Z M 46.3 121.9 "></path></clipPath><g clip-path="url(#clip-758)"><path d="M 47.3 165.9 L 249.1 165.9 L 249.1 122.9 L 47.3 122.9 Z M 47.3 165.9 " fill="#A5A5A5"></path></g></g><g><clipPath id="clip-759"><path d="M 47.3 113.0 L 249.1 113.0 L 249.1 175.8 L 47.3 175.8 Z M 47.3 113.0 "></path></clipPath><g clip-path="url(#clip-759)"><text xml:space="preserve" font-family="FCBARCELONA-Bold" font-weight="bold" font-size="24.0" fill="#000000" transform="matrix(1.00, 0.00, -0.00, -1.00, 64.0, 136.0)"> </text><text xml:space="preserve" font-family="FCBARCELONA-Bold" font-weight="bold" font-size="24.0" fill="#000000" transform="matrix(1.00, 0.00, -0.00, -1.00, 68.8, 136.0)"> </text><text xml:space="preserve" font-family="FCBARCELONA-Bold" font-weight="bold" font-size="24.0" fill="#000000" transform="matrix(1.00, 0.00, -0.00, -1.00, 73.6, 136.0)"> </text><text xml:space="preserve" font-family="FCBARCELONA-Bold" font-weight="bold" font-size="24.0" fill="#000000" transform="matrix(1.00, 0.00, -0.00, -1.00, 78.4, 136.0)"> </text><text xml:space="preserve" font-family="FCBARCELONA-Bold" font-weight="bold" font-size="24.0" fill="#000000" transform="matrix(1.00, 0.00, -0.00, -1.00, 83.2, 136.0)">2</text><text xml:space="preserve" font-family="FCBARCELONA-Bold" font-weight="bold" font-size="24.0" fill="#000000" transform="matrix(1.00, 0.00, -0.00, -1.00, 95.2, 136.0)">1</text><text xml:space="preserve" font-family="FCBARCELONA-Bold" font-weight="bold" font-size="24.0" fill="#000000" transform="matrix(1.00, 0.00, -0.00, -1.00, 105.0, 136.0)">5</text><text xml:space="preserve" font-family="FCBARCELONA-Bold" font-weight="bold" font-size="24.0" fill="#000000" transform="matrix(1.00, 0.00, -0.00, -1.00, 117.9, 136.0)">M</text><text xml:space="preserve" font-family="FCBARCELONA-Regular" font-size="24.0" fill="#002060" transform="matrix(1.00, 0.00, -0.00, -1.00, 137.6, 136.0)"> </text></g></g><g><clipPath id="clip-760"><path d="M 46.3 60.0 L 189.4 60.0 L 189.4 102.6 L 46.3 102.6 Z M 46.3 60.0 "></path></clipPath><g clip-path="url(#clip-760)"><path d="M 47.3 101.6 L 188.4 101.6 L 188.4 61.0 L 47.3 61.0 Z M 47.3 101.6 " fill="#A5A5A5"></path></g></g><g><clipPath id="clip-761"><path d="M 47.3 49.9 L 188.4 49.9 L 188.4 112.8 L 47.3 112.8 Z M 47.3 49.9 "></path></clipPath><g clip-path="url(#clip-761)"><text xml:space="preserve" font-family="FCBARCELONA-Bold" font-weight="bold" font-size="24.0" fill="#000000" transform="matrix(1.00, 0.00, -0.00, -1.00, 116.3, 73.4)">1</text><text xml:space="preserve" font-family="FCBARCELONA-Bold" font-weight="bold" font-size="24.0" fill="#000000" transform="matrix(1.00, 0.00, -0.00, -1.00, 126.0, 73.4)">5</text><text xml:space="preserve" font-family="FCBARCELONA-Bold" font-weight="bold" font-size="24.0" fill="#000000" transform="matrix(1.00, 0.00, -0.00, -1.00, 139.0, 73.4)">9</text><text xml:space="preserve" font-family="FCBARCELONA-Bold" font-weight="bold" font-size="24.0" fill="#000000" transform="matrix(1.00, 0.00, -0.00, -1.00, 151.7, 73.4)">M</text><text xml:space="preserve" font-family="FCBARCELONA-Regular" font-size="24.0" fill="#002060" transform="matrix(1.00, 0.00, -0.00, -1.00, 171.4, 73.4)"> </text></g></g><g><clipPath id="clip-762"><path d="M 11.5 1.3 L 164.5 1.3 L 164.5 34.5 L 11.5 34.5 Z M 11.5 1.3 "></path></clipPath><g clip-path="url(#clip-762)"><text xml:space="preserve" font-family="FCBARCELONA-Regular" font-size="12.0" fill="#FFFFFF" transform="matrix(1.00, 0.00, -0.00, -1.00, 21.0, 14.0)">S</text><text xml:space="preserve" font-family="FCBARCELONA-Regular" font-size="12.0" fill="#FFFFFF" transform="matrix(1.00, 0.00, -0.00, -1.00, 27.2, 14.0)">o</text><text xml:space="preserve" font-family="FCBARCELONA-Regular" font-size="12.0" fill="#FFFFFF" transform="matrix(1.00, 0.00, -0.00, -1.00, 33.6, 14.0)">u</text><text xml:space="preserve" font-family="FCBARCELONA-Regular" font-size="12.0" fill="#FFFFFF" transform="matrix(1.00, 0.00, -0.00, -1.00, 40.3, 14.0)">r</text><text xml:space="preserve" font-family="FCBARCELONA-Regular" font-size="12.0" fill="#FFFFFF" transform="matrix(1.00, 0.00, -0.00, -1.00, 44.2, 14.0)">c</text><text xml:space="preserve" font-family="FCBARCELONA-Regular" font-size="12.0" fill="#FFFFFF" transform="matrix(1.00, 0.00, -0.00, -1.00, 49.6, 14.0)">e</text><text xml:space="preserve" font-family="FCBARCELONA-Regular" font-size="12.0" fill="#FFFFFF" transform="matrix(1.00, 0.00, -0.00, -1.00, 55.7, 14.0)">:</text><text xml:space="preserve" font-family="FCBARCELONA-Regular" font-size="12.0" fill="#FFFFFF" transform="matrix(1.00, 0.00, -0.00, -1.00, 58.3, 14.0)"> </text><text xml:space="preserve" font-family="FCBARCELONA-Regular" font-size="12.0" fill="#FFFFFF" transform="matrix(1.00, 0.00, -0.00, -1.00, 60.9, 14.0)">N</text><text xml:space="preserve" font-family="FCBARCELONA-Regular" font-size="12.0" fill="#FFFFFF" transform="matrix(1.00, 0.00, -0.00, -1.00, 68.8, 14.0)">i</text><text xml:space="preserve" font-family="FCBARCELONA-Regular" font-size="12.0" fill="#FFFFFF" transform="matrix(1.00, 0.00, -0.00, -1.00, 71.8, 14.0)">e</text><text xml:space="preserve" font-family="FCBARCELONA-Regular" font-size="12.0" fill="#FFFFFF" transform="matrix(1.00, 0.00, -0.00, -1.00, 77.9, 14.0)">l</text><text xml:space="preserve" font-family="FCBARCELONA-Regular" font-size="12.0" fill="#FFFFFF" transform="matrix(1.00, 0.00, -0.00, -1.00, 80.9, 14.0)">s</text><text xml:space="preserve" font-family="FCBARCELONA-Regular" font-size="12.0" fill="#FFFFFF" transform="matrix(1.00, 0.00, -0.00, -1.00, 86.2, 14.0)">e</text><text xml:space="preserve" font-family="FCBARCELONA-Regular" font-size="12.0" fill="#FFFFFF" transform="matrix(1.00, 0.00, -0.00, -1.00, 92.3, 14.0)">n</text></g></g><g><clipPath id="clip-763"><path d="M 13.7 120.6 L 62.2 120.6 L 62.2 169.7 L 13.7 169.7 Z M 13.7 120.6 "></path></clipPath><g clip-path="url(#clip-763)"><image xlink:href="21CB77112925F04FE30EE49265BAC1E7.png" width="38.00" height="38.00" transform="matrix(1.26, 0.00, -0.00, -1.29, 14.0, 170.0)"></image></g></g><g><clipPath id="clip-764"><path d="M 13.4 56.4 L 62.5 56.4 L 62.5 105.6 L 13.4 105.6 Z M 13.4 56.4 "></path></clipPath><g clip-path="url(#clip-764)"><image xlink:href="067E56FCC05C755ADF8AFA02B514CD3B.png" width="38.00" height="38.00" transform="matrix(1.32, 0.00, -0.00, -1.32, 13.0, 106.0)"></image></g></g><g><clipPath id="clip-765"><path d="M 8.1 181.5 L 67.8 181.5 L 67.8 241.1 L 8.1 241.1 Z M 8.1 181.5 "></path></clipPath><g clip-path="url(#clip-765)"><image xlink:href="D9F694DA9B77A5668C8CAB004DD98145.png" width="47.00" height="47.00" transform="matrix(1.28, 0.00, -0.00, -1.28, 8.0, 241.0)"></image></g></g><g><clipPath id="clip-766"><path d="M 0.9 243.6 L 74.6 243.6 L 74.6 318.3 L 0.9 318.3 Z M 0.9 243.6 "></path></clipPath><g clip-path="url(#clip-766)"><image xlink:href="FE089D9A75E31541E4238BA476F20FCE.png" width="58.00" height="58.00" transform="matrix(1.28, 0.00, -0.00, -1.28, 1.0, 318.0)"></image></g></g></g></svg>