<?xml version="1.0" encoding="UTF-8" standalone="no"?><svg xmlns="http://www.w3.org/2000/svg" xmlns:xlink="http://www.w3.org/1999/xlink" clip-rule="evenodd" stroke-miterlimit="4.00" viewBox="0 0 1920 1080"><desc>SVG generated by Keynote</desc><defs></defs><g transform="matrix(1.00, 0.00, -0.00, -1.00, 0.0, 1080.0)"><path d="M 0.0 1080.0 L 1920.0 1080.0 L 1920.0 0.0 L 0.0 0.0 Z M 0.0 1080.0 " fill="#FFFFFF"></path><image xlink:href="BE9C4E684005B4DCE1CEB42F55CD7963.jpeg" width="1365.00" height="768.00" transform="matrix(1.41, 0.00, -0.00, -1.41, 0.0, 1082.0)"></image><g><clipPath id="clip-813"><path d="M 0.0 1080.0 L 1919.9 1080.0 L 1919.9 -0.0 L 0.0 -0.0 Z M 0.0 1080.0 "></path></clipPath><g clip-path="url(#clip-813)"><image xlink:href="6738C707048AFB42D219D7633A8884B1.png" width="960.00" height="540.00" transform="matrix(2.00, 0.00, -0.00, 2.00, 0.0, 0.0)"></image></g></g><image xlink:href="../../A76AF50B-A997-4C49-91CD-D512467A5B86/assets/D0842081062D07D20B0C74AD7CDBB74F.png" width="32.00" height="33.00" transform="matrix(1.28, 0.00, -0.00, -1.30, 1801.0, 1036.0)"></image><path d="M 0.0 0.0 L 390.0 0.0 " fill="none" stroke="#FFFFFF" stroke-width="2.00" stroke-linejoin="round" transform="matrix(-1.00, 0.00, 0.00, 1.00, -1103.5, 354.6)"></path><path d="M 0.0 0.0 L 390.0 0.0 " fill="none" stroke="#FFFFFF" stroke-width="2.00" stroke-linejoin="round" transform="matrix(-1.00, 0.00, 0.00, 1.00, -257.5, 354.6)"></path><image xlink:href="C55A11AE6A25CEC8874B95BDCA037BC2.png" width="200.00" height="200.00" transform="matrix(2.21, 0.00, -0.00, -2.21, 3054.0, 393.0)"></image><image xlink:href="108BC8B046B024ABE3FCF30AC71E996A.png" width="200.00" height="200.00" transform="matrix(2.21, 0.00, -0.00, -2.21, 2195.0, 1478.0)"></image><image xlink:href="A77F16A956F63C5741C4A5EEC89246B5.png" width="200.00" height="200.00" transform="matrix(2.21, 0.00, -0.00, -2.21, 2195.0, 393.0)"></image><image xlink:href="3253A9252CE1F837DE05A9B55B3142AA.png" width="200.00" height="200.00" transform="matrix(2.21, 0.00, -0.00, -2.21, 3912.0, 393.0)"></image></g></svg>