<?xml version="1.0" encoding="UTF-8" standalone="no"?><svg xmlns="http://www.w3.org/2000/svg" xmlns:xlink="http://www.w3.org/1999/xlink" clip-rule="evenodd" stroke-miterlimit="4.00" viewBox="0 0 266 481"><desc>SVG generated by Keynote</desc><defs></defs><g transform="matrix(1.00, 0.00, -0.00, -1.00, 0.0, 481.0)"><g><clipPath id="clip-4907"><path d="M 1.0 480.0 L 266.0 480.0 L 266.0 0.0 L 1.0 0.0 Z M 0.6 480.2 "></path></clipPath><g clip-path="url(#clip-4907)"><g><clipPath id="clip-4908"><path d="M 0.6 0.4 L 265.6 0.4 L 265.6 480.2 L 0.6 480.2 Z M 0.6 0.4 "></path></clipPath><g clip-path="url(#clip-4908)"><image xlink:href="1502A8EF0C0E234FF1EA0EEAE663DEA1.png" width="622.00" height="426.00" transform="matrix(1.28, 0.00, -0.00, -1.28, -63.0, 507.0)"></image></g></g></g></g><g><clipPath id="clip-4909"><path d="M 1.0 17.0 L 266.0 17.0 L 266.0 0.0 L 1.0 0.0 Z M 0.6 17.0 "></path></clipPath><g clip-path="url(#clip-4909)"><g><clipPath id="clip-4910"><path d="M 0.6 0.4 L 265.6 0.4 L 265.6 17.0 L 0.6 17.0 Z M 0.6 0.4 "></path></clipPath><g clip-path="url(#clip-4910)"><image xlink:href="C0C14E2113F5E19241E1A32DD2040886.png" width="696.00" height="477.00" transform="matrix(1.15, 0.00, -0.00, -1.15, -64.0, 512.0)"></image></g></g></g></g></g></svg>