<?xml version="1.0" encoding="UTF-8" standalone="no"?><svg xmlns="http://www.w3.org/2000/svg" xmlns:xlink="http://www.w3.org/1999/xlink" clip-rule="evenodd" stroke-miterlimit="4.00" viewBox="0 0 299 110"><desc>SVG generated by Keynote</desc><defs></defs><g transform="matrix(1.00, 0.00, -0.00, -1.00, 0.0, 110.0)"><text xml:space="preserve" font-family="FCBARCELONA-Light" font-size="64.0" fill="#FFFFFF" transform="matrix(1.00, 0.00, -0.00, -1.00, 87.0, 64.0)">S</text><text xml:space="preserve" font-family="FCBARCELONA-Light" font-size="64.0" fill="#FFFFFF" transform="matrix(1.00, 0.00, -0.00, -1.00, 119.2, 64.0)">T</text><text xml:space="preserve" font-family="FCBARCELONA-Light" font-size="64.0" fill="#FFFFFF" transform="matrix(1.00, 0.00, -0.00, -1.00, 144.8, 64.0)">A</text><text xml:space="preserve" font-family="FCBARCELONA-Light" font-size="64.0" fill="#FFFFFF" transform="matrix(1.00, 0.00, -0.00, -1.00, 178.9, 64.0)">Y</text><text xml:space="preserve" font-family="FCBARCELONA-Light" font-size="64.0" fill="#FFFFFF" transform="matrix(1.00, 0.00, -0.00, -1.00, 211.4, 64.0)"> </text><text xml:space="preserve" font-family="FCBARCELONA-Heavy" font-weight="bold" font-size="64.0" fill="#FFFFFF" transform="matrix(1.00, 0.00, -0.00, -1.00, 2.0, 2.0)">T</text><text xml:space="preserve" font-family="FCBARCELONA-Heavy" font-weight="bold" font-size="64.0" fill="#FFFFFF" transform="matrix(1.00, 0.00, -0.00, -1.00, 35.0, 2.0)">O</text><text xml:space="preserve" font-family="FCBARCELONA-Heavy" font-weight="bold" font-size="64.0" fill="#FFFFFF" transform="matrix(1.00, 0.00, -0.00, -1.00, 75.3, 2.0)">G</text><text xml:space="preserve" font-family="FCBARCELONA-Heavy" font-weight="bold" font-size="64.0" fill="#FFFFFF" transform="matrix(1.00, 0.00, -0.00, -1.00, 113.6, 2.0)">E</text><text xml:space="preserve" font-family="FCBARCELONA-Heavy" font-weight="bold" font-size="64.0" fill="#FFFFFF" transform="matrix(1.00, 0.00, -0.00, -1.00, 148.2, 2.0)">T</text><text xml:space="preserve" font-family="FCBARCELONA-Heavy" font-weight="bold" font-size="64.0" fill="#FFFFFF" transform="matrix(1.00, 0.00, -0.00, -1.00, 182.7, 2.0)">H</text><text xml:space="preserve" font-family="FCBARCELONA-Heavy" font-weight="bold" font-size="64.0" fill="#FFFFFF" transform="matrix(1.00, 0.00, -0.00, -1.00, 224.8, 2.0)">E</text><text xml:space="preserve" font-family="FCBARCELONA-Heavy" font-weight="bold" font-size="64.0" fill="#FFFFFF" transform="matrix(1.00, 0.00, -0.00, -1.00, 259.3, 2.0)">R</text><text xml:space="preserve" font-family="FCBARCELONA-Heavy" font-weight="bold" font-size="64.0" fill="#FFFFFF" transform="matrix(1.00, 0.00, -0.00, -1.00, 297.9, 2.0)"> </text></g></svg>