<?xml version="1.0" encoding="UTF-8" standalone="no"?><svg xmlns="http://www.w3.org/2000/svg" xmlns:xlink="http://www.w3.org/1999/xlink" clip-rule="evenodd" stroke-miterlimit="4.00" viewBox="0 0 357 221"><desc>SVG generated by Keynote</desc><defs></defs><g transform="matrix(1.00, 0.00, -0.00, -1.00, 0.0, 221.0)"><text xml:space="preserve" font-family="Calibri" font-size="48.0" fill="#000000" transform="matrix(1.00, 0.00, -0.00, -1.00, 1.0, 187.0)">D</text><text xml:space="preserve" font-family="Calibri" font-size="48.0" fill="#000000" transform="matrix(1.00, 0.00, -0.00, -1.00, 30.5, 187.0)">e</text><text xml:space="preserve" font-family="Calibri" font-size="48.0" fill="#000000" transform="matrix(1.00, 0.00, -0.00, -1.00, 54.4, 187.0)">s</text><text xml:space="preserve" font-family="Calibri" font-size="48.0" fill="#000000" transform="matrix(1.00, 0.00, -0.00, -1.00, 73.2, 187.0)">i</text><text xml:space="preserve" font-family="Calibri" font-size="48.0" fill="#000000" transform="matrix(1.00, 0.00, -0.00, -1.00, 84.2, 187.0)">g</text><text xml:space="preserve" font-family="Calibri" font-size="48.0" fill="#000000" transform="matrix(1.00, 0.00, -0.00, -1.00, 106.7, 187.0)">n</text><text xml:space="preserve" font-family="Calibri" font-size="48.0" fill="#000000" transform="matrix(1.00, 0.00, -0.00, -1.00, 132.0, 187.0)"> </text><text xml:space="preserve" font-family="Calibri" font-size="48.0" fill="#000000" transform="matrix(1.00, 0.00, -0.00, -1.00, 1.0, 128.0)">C</text><text xml:space="preserve" font-family="Calibri" font-size="48.0" fill="#000000" transform="matrix(1.00, 0.00, -0.00, -1.00, 26.6, 128.0)">l</text><text xml:space="preserve" font-family="Calibri" font-size="48.0" fill="#000000" transform="matrix(1.00, 0.00, -0.00, -1.00, 37.6, 128.0)">e</text><text xml:space="preserve" font-family="Calibri" font-size="48.0" fill="#000000" transform="matrix(1.00, 0.00, -0.00, -1.00, 61.5, 128.0)">a</text><text xml:space="preserve" font-family="Calibri" font-size="48.0" fill="#000000" transform="matrix(1.00, 0.00, -0.00, -1.00, 84.5, 128.0)">n</text><text xml:space="preserve" font-family="Calibri" font-size="48.0" fill="#000000" transform="matrix(1.00, 0.00, -0.00, -1.00, 109.7, 128.0)"> </text><text xml:space="preserve" font-family="Calibri" font-size="48.0" fill="#000000" transform="matrix(1.00, 0.00, -0.00, -1.00, 120.6, 128.0)">b</text><text xml:space="preserve" font-family="Calibri" font-size="48.0" fill="#000000" transform="matrix(1.00, 0.00, -0.00, -1.00, 145.8, 128.0)">a</text><text xml:space="preserve" font-family="Calibri" font-size="48.0" fill="#000000" transform="matrix(1.00, 0.00, -0.00, -1.00, 168.8, 128.0)">c</text><text xml:space="preserve" font-family="Calibri" font-size="48.0" fill="#000000" transform="matrix(1.00, 0.00, -0.00, -1.00, 189.1, 128.0)">k</text><text xml:space="preserve" font-family="Calibri" font-size="48.0" fill="#000000" transform="matrix(1.00, 0.00, -0.00, -1.00, 210.9, 128.0)">g</text><text xml:space="preserve" font-family="Calibri" font-size="48.0" fill="#000000" transform="matrix(1.00, 0.00, -0.00, -1.00, 233.5, 128.0)">r</text><text xml:space="preserve" font-family="Calibri" font-size="48.0" fill="#000000" transform="matrix(1.00, 0.00, -0.00, -1.00, 249.4, 128.0)">o</text><text xml:space="preserve" font-family="Calibri" font-size="48.0" fill="#000000" transform="matrix(1.00, 0.00, -0.00, -1.00, 274.8, 128.0)">u</text><text xml:space="preserve" font-family="Calibri" font-size="48.0" fill="#000000" transform="matrix(1.00, 0.00, -0.00, -1.00, 300.0, 128.0)">n</text><text xml:space="preserve" font-family="Calibri" font-size="48.0" fill="#000000" transform="matrix(1.00, 0.00, -0.00, -1.00, 325.2, 128.0)">d</text><text xml:space="preserve" font-family="Calibri" font-size="48.0" fill="#000000" transform="matrix(1.00, 0.00, -0.00, -1.00, 350.5, 128.0)"> </text><text xml:space="preserve" font-family="Helvetica" font-size="25.2" fill="#000000" transform="matrix(1.00, 0.00, -0.00, -1.00, 1.0, 69.0)"> </text><text xml:space="preserve" font-family="Calibri" font-size="48.0" fill="#000000" transform="matrix(1.00, 0.00, -0.00, -1.00, 1.0, 10.0)">P</text><text xml:space="preserve" font-family="Calibri" font-size="48.0" fill="#000000" transform="matrix(1.00, 0.00, -0.00, -1.00, 25.8, 10.0)">R</text><text xml:space="preserve" font-family="Calibri" font-size="48.0" fill="#000000" transform="matrix(1.00, 0.00, -0.00, -1.00, 51.8, 10.0)"> </text><text xml:space="preserve" font-family="Calibri" font-size="48.0" fill="#000000" transform="matrix(1.00, 0.00, -0.00, -1.00, 62.7, 10.0)">l</text><text xml:space="preserve" font-family="Calibri" font-size="48.0" fill="#000000" transform="matrix(1.00, 0.00, -0.00, -1.00, 73.7, 10.0)">a</text><text xml:space="preserve" font-family="Calibri" font-size="48.0" fill="#000000" transform="matrix(1.00, 0.00, -0.00, -1.00, 96.7, 10.0)">u</text><text xml:space="preserve" font-family="Calibri" font-size="48.0" fill="#000000" transform="matrix(1.00, 0.00, -0.00, -1.00, 122.0, 10.0)">n</text><text xml:space="preserve" font-family="Calibri" font-size="48.0" fill="#000000" transform="matrix(1.00, 0.00, -0.00, -1.00, 147.2, 10.0)">c</text><text xml:space="preserve" font-family="Calibri" font-size="48.0" fill="#000000" transform="matrix(1.00, 0.00, -0.00, -1.00, 167.5, 10.0)">h</text><text xml:space="preserve" font-family="Calibri" font-size="48.0" fill="#000000" transform="matrix(1.00, 0.00, -0.00, -1.00, 192.7, 10.0)">i</text><text xml:space="preserve" font-family="Calibri" font-size="48.0" fill="#000000" transform="matrix(1.00, 0.00, -0.00, -1.00, 203.8, 10.0)">n</text><text xml:space="preserve" font-family="Calibri" font-size="48.0" fill="#000000" transform="matrix(1.00, 0.00, -0.00, -1.00, 229.0, 10.0)">g</text><text xml:space="preserve" font-family="Calibri" font-size="48.0" fill="#000000" transform="matrix(1.00, 0.00, -0.00, -1.00, 251.6, 10.0)"> </text><text xml:space="preserve" font-family="Calibri" font-size="48.0" fill="#000000" transform="matrix(1.00, 0.00, -0.00, -1.00, 262.4, 10.0)">S</text><text xml:space="preserve" font-family="Calibri" font-size="48.0" fill="#000000" transform="matrix(1.00, 0.00, -0.00, -1.00, 284.5, 10.0)">t</text><text xml:space="preserve" font-family="Calibri" font-size="48.0" fill="#000000" transform="matrix(1.00, 0.00, -0.00, -1.00, 300.6, 10.0)">y</text><text xml:space="preserve" font-family="Calibri" font-size="48.0" fill="#000000" transform="matrix(1.00, 0.00, -0.00, -1.00, 322.3, 10.0)">l</text><text xml:space="preserve" font-family="Calibri" font-size="48.0" fill="#000000" transform="matrix(1.00, 0.00, -0.00, -1.00, 333.4, 10.0)">e</text></g></svg>